<svg width="14" height="15" viewBox="0 0 14 15" fill="none" xmlns="http://www.w3.org/2000/svg">
<path id="Icon" d="M13.1271 5.13658L9.33539 1.34491C8.64155 0.663025 7.52923 0.663025 6.83539 1.34491L4.47706 3.66991C4.34293 3.80463 4.18822 3.91715 4.01872 4.00324L1.46039 5.28658C0.946339 5.54214 0.586749 6.02953 0.494248 6.5961C0.401747 7.16267 0.587647 7.73913 0.993721 8.14491L3.21872 10.3699L0.518721 13.0699C0.27501 13.3139 0.27501 13.7092 0.518721 13.9532C0.637759 14.0676 0.79539 14.133 0.960388 14.1366C1.12609 14.1364 1.28496 14.0705 1.40205 13.9532L4.10206 11.2532L6.32706 13.4782C6.73284 13.8843 7.3093 14.0702 7.87586 13.9777C8.44243 13.8852 8.92983 13.5256 9.18539 13.0116L10.4687 10.4366C10.5548 10.2671 10.6673 10.1124 10.8021 9.97824L13.1271 7.65324C13.8199 6.95743 13.8199 5.8324 13.1271 5.13658Z" fill="#595959"/>
</svg>
