<svg width="9" height="9" viewBox="0 0 9 9" fill="none" xmlns="http://www.w3.org/2000/svg">
<path d="M3.92937 0.744512C4.10898 0.191726 4.89102 0.191725 5.07063 0.744511L5.71238 2.71959C5.7927 2.9668 6.02307 3.13418 6.28301 3.13418H8.35973C8.94096 3.13418 9.18263 3.87795 8.7124 4.21959L7.0323 5.44025C6.82201 5.59304 6.73401 5.86386 6.81434 6.11107L7.45608 8.08615C7.63569 8.63894 7.003 9.09861 6.53277 8.75697L4.85267 7.53631C4.64238 7.38352 4.35762 7.38352 4.14733 7.53631L2.46723 8.75697C1.997 9.09861 1.36431 8.63894 1.54392 8.08615L2.18566 6.11107C2.26599 5.86386 2.17799 5.59304 1.9677 5.44025L0.2876 4.21959C-0.182628 3.87795 0.0590373 3.13418 0.640271 3.13418H2.71699C2.97693 3.13418 3.2073 2.9668 3.28762 2.71959L3.92937 0.744512Z" fill="#D9D9D9"/>
</svg>
