<svg width="20" height="21" viewBox="0 0 20 21" fill="none" xmlns="http://www.w3.org/2000/svg">
<path d="M7.49984 18.8332H12.4998C16.6665 18.8332 18.3332 17.1665 18.3332 12.9998V7.99984C18.3332 3.83317 16.6665 2.1665 12.4998 2.1665H7.49984C3.33317 2.1665 1.6665 3.83317 1.6665 7.99984V12.9998C1.6665 17.1665 3.33317 18.8332 7.49984 18.8332Z" fill="#BFBFBF" stroke="#404040" stroke-width="1.5" stroke-linecap="round" stroke-linejoin="round"/>
<path d="M18.3323 12.0835V13.9918C18.3323 17.0251 16.524 18.8335 13.4907 18.8335H6.50732C4.38232 18.8335 2.84899 17.9418 2.13232 16.3585L2.22399 16.2918L6.32399 13.5418C6.99066 13.0918 7.93232 13.1418 8.52399 13.6585L8.80732 13.8918C9.45732 14.4501 10.5073 14.4501 11.1573 13.8918L14.624 10.9168C15.274 10.3585 16.324 10.3585 16.974 10.9168L18.3323 12.0835Z" fill="#8C8C8C"/>
<path d="M7.50016 8.83333C8.42064 8.83333 9.16683 8.08714 9.16683 7.16667C9.16683 6.24619 8.42064 5.5 7.50016 5.5C6.57969 5.5 5.8335 6.24619 5.8335 7.16667C5.8335 8.08714 6.57969 8.83333 7.50016 8.83333Z" fill="#D9D9D9" stroke="#404040" stroke-width="1.5" stroke-linecap="round" stroke-linejoin="round"/>
</svg>
