<svg width="25" height="27" viewBox="0 0 25 27" fill="none" xmlns="http://www.w3.org/2000/svg">
<g id="Share" clip-path="url(#clip0_1614_20836)">
<g id="Group">
<path id="Vector" d="M20.1 8.8001C22.0882 8.8001 23.7 7.18832 23.7 5.2001C23.7 3.21187 22.0882 1.6001 20.1 1.6001C18.1118 1.6001 16.5 3.21187 16.5 5.2001C16.5 7.18832 18.1118 8.8001 20.1 8.8001Z" stroke="#404040" stroke-width="1.8" stroke-linecap="round" stroke-linejoin="round"/>
<path id="Vector_2" d="M5.70156 17.2C7.68979 17.2 9.30156 15.5882 9.30156 13.6C9.30156 11.6118 7.68979 10 5.70156 10C3.71334 10 2.10156 11.6118 2.10156 13.6C2.10156 15.5882 3.71334 17.2 5.70156 17.2Z" stroke="#404040" stroke-width="1.8" stroke-linecap="round" stroke-linejoin="round"/>
<path id="Vector_3" d="M20.1 25.5999C22.0882 25.5999 23.7 23.9881 23.7 21.9999C23.7 20.0117 22.0882 18.3999 20.1 18.3999C18.1118 18.3999 16.5 20.0117 16.5 21.9999C16.5 23.9881 18.1118 25.5999 20.1 25.5999Z" stroke="#404040" stroke-width="1.8" stroke-linecap="round" stroke-linejoin="round"/>
<path id="Vector_4" d="M8.8125 15.4142L17.0085 20.1902M16.9965 7.01416L8.8125 11.7902" stroke="#404040" stroke-width="1.8" stroke-linecap="round" stroke-linejoin="round"/>
</g>
</g>
<defs>
<clipPath id="clip0_1614_20836">
<rect width="24" height="26.4" fill="white" transform="translate(0.898438 0.399902)"/>
</clipPath>
</defs>
</svg>
