<svg width="53" height="53" viewBox="0 0 53 53" fill="none" xmlns="http://www.w3.org/2000/svg">
<path d="M41.1498 15.9677C41.4966 20.1722 38.5057 23.8566 34.3662 24.355C34.3446 24.355 34.3446 24.355 34.3229 24.355H34.2579C34.1278 24.355 33.9978 24.355 33.8894 24.3984C31.7872 24.5068 29.8583 23.8349 28.4062 22.5996C30.6385 20.6057 31.9172 17.6148 31.6572 14.3639C31.5054 12.6084 30.8986 11.0047 29.9884 9.63928C30.8119 9.2275 31.7655 8.96742 32.7408 8.88073C36.9886 8.5123 40.7814 11.6765 41.1498 15.9677Z" fill="#A6A6A6"/>
<path d="M45.7444 37.0984C45.571 39.2006 44.2273 41.0212 41.9734 42.2565C39.8061 43.4485 35.4499 44.5529 32.7408 44.4879C34.3012 43.0792 36.8369 40.7828 37.0103 38.9189C37.227 36.2315 35.9484 33.6524 33.391 31.5935C31.9389 30.4449 30.2484 29.5346 28.4062 28.8628C33.1959 27.4757 39.2209 28.4076 42.927 31.3985C44.9209 33.0023 45.9395 35.0178 45.7444 37.0984Z" fill="#A6A6A6"/>
<path d="M21.9059 4.39453C16.2276 4.39453 11.6113 9.01082 11.6113 14.6891C11.6113 20.259 15.9675 24.7669 21.6458 24.9619C21.8192 24.9403 21.9926 24.9403 22.1226 24.9619C22.1659 24.9619 22.1876 24.9619 22.231 24.9619C22.2526 24.9619 22.2526 24.9619 22.2743 24.9619C27.8225 24.7669 32.1787 20.259 32.2004 14.6891C32.2004 9.01082 27.5841 4.39453 21.9059 4.39453Z" fill="#404040"/>
<path d="M32.9177 30.7255C26.871 26.6944 17.0099 26.6944 10.9199 30.7255C8.16748 32.5677 6.65039 35.06 6.65039 37.7258C6.65039 40.3915 8.16748 42.8622 10.8982 44.6827C13.9324 46.7199 17.9202 47.7386 21.908 47.7386C25.8958 47.7386 29.8835 46.7199 32.9177 44.6827C35.6485 42.8405 37.1656 40.3698 37.1656 37.6824C37.1439 35.0167 35.6485 32.546 32.9177 30.7255Z" fill="#404040"/>
</svg>
