<svg width="53" height="53" viewBox="0 0 53 53" fill="none" xmlns="http://www.w3.org/2000/svg">
<path opacity="0.4" d="M13.1535 4.92676H39.1607C43.9485 4.92676 47.8298 8.80804 47.8298 13.5958V39.6031C47.8298 44.3909 43.9485 48.2722 39.1607 48.2722H13.1535C8.36566 48.2722 4.48438 44.3909 4.48438 39.6031V13.5958C4.48438 8.80804 8.36566 4.92676 13.1535 4.92676Z" fill="#A6A6A6"/>
<path d="M36.9927 22.2649C36.9927 23.4619 36.0224 24.4322 34.8255 24.4322C33.6285 24.4322 32.6582 23.4619 32.6582 22.2649C32.6582 21.068 33.6285 20.0977 34.8255 20.0977C36.0224 20.0977 36.9927 21.068 36.9927 22.2649Z" fill="#404040"/>
<path d="M19.6549 22.2649C19.6549 23.4619 18.6845 24.4322 17.4876 24.4322C16.2906 24.4322 15.3203 23.4619 15.3203 22.2649C15.3203 21.068 16.2906 20.0977 17.4876 20.0977C18.6845 20.0977 19.6549 21.068 19.6549 22.2649Z" fill="#404040"/>
<path fill-rule="evenodd" clip-rule="evenodd" d="M20.7266 31.879C20.0555 31.2903 19.0339 31.3529 18.4399 32.0212C17.8435 32.6921 17.9039 33.7195 18.5749 34.3159L19.6548 33.1011C18.5749 34.3159 18.5744 34.3155 18.5749 34.3159L18.577 34.3178L18.5793 34.3198L18.5846 34.3245L18.5981 34.3362L18.6361 34.3687C18.6664 34.3942 18.7066 34.4274 18.7565 34.467C18.8561 34.5461 18.9948 34.6515 19.171 34.774C19.5228 35.0188 20.0276 35.3345 20.6727 35.6473C21.9629 36.2729 23.8306 36.8938 26.1566 36.8938C28.4826 36.8938 30.3502 36.2729 31.6405 35.6473C32.2856 35.3345 32.7903 35.0188 33.1422 34.774C33.3183 34.6515 33.457 34.5461 33.5567 34.467C33.6065 34.4274 33.6467 34.3942 33.677 34.3687L33.7151 34.3362L33.7286 34.3245L33.7339 34.3198L33.7362 34.3178C33.7367 34.3173 33.7383 34.3159 32.6584 33.1011L33.7383 34.3159C34.4092 33.7195 34.4697 32.6921 33.8733 32.0212C33.2792 31.3529 32.2577 31.2903 31.5866 31.8791L31.5847 31.8807C31.5773 31.887 31.5594 31.9017 31.5347 31.9214C31.4851 31.9608 31.4016 32.0247 31.2857 32.1053C31.0534 32.267 30.6946 32.493 30.2222 32.7221C29.2775 33.1801 27.8942 33.6429 26.1566 33.6429C24.419 33.6429 23.0357 33.1801 22.091 32.7221C21.6185 32.493 21.2598 32.267 21.0275 32.1053C20.9116 32.0247 20.828 31.9608 20.7785 31.9214C20.7537 31.9017 20.7375 31.8883 20.7302 31.8821C20.7286 31.8807 20.7274 31.8797 20.7266 31.879C20.7266 31.8791 20.7266 31.879 20.7266 31.879ZM31.5866 31.8791L31.5847 31.8807L31.582 31.8831L31.5804 31.8845C31.5827 31.8824 31.5842 31.8811 31.5866 31.8791Z" fill="#404040"/>
</svg>
