<svg width="58" height="47" viewBox="0 0 58 47" fill="none" xmlns="http://www.w3.org/2000/svg">
<g id="Group 1000006597">
<path id="Vector" d="M6.9278 27.5406L27.6764 12.2631L42.5403 26.3207L21.7916 41.5982C20.8014 42.3502 18.8707 42.9928 17.5269 43.0697L7.91609 43.5646C4.45339 43.7475 2.15967 41.5613 2.80735 38.7247L4.6304 30.8719C4.90898 29.7836 5.93985 28.2681 6.9278 27.5406Z" fill="#A6A6A6" stroke="#A6A6A6" stroke-width="4.34999" stroke-miterlimit="10" stroke-linecap="round" stroke-linejoin="round"/>
<path id="Rectangle 22236" d="M41.4242 29.7205L48.3066 24.882C53.2935 21.3761 54.063 15.1616 50.0679 10.6579L48.8936 9.33406C48.3072 8.67298 47.6331 8.06853 46.8849 7.53276L46.7625 7.44506C41.7945 3.88766 34.5226 3.96129 29.9182 7.61561L25.329 11.2579C22.1813 13.4708 20.8832 14.8507 28.9955 22.8192C31.641 25.4178 38.2764 31.9334 41.4242 29.7205Z" fill="#404040"/>
</g>
</svg>
