<svg width="35" height="34" viewBox="0 0 35 34" fill="none" xmlns="http://www.w3.org/2000/svg">
<path d="M33.5 17C33.5 8.16343 26.3366 1 17.5 1C8.66343 1 1.5 8.16343 1.5 17C1.5 19.8965 2.26965 22.6132 3.61559 24.9567C2.92307 26.7673 2.26904 28.8708 1.83963 30.9727C1.63484 31.9752 2.51813 32.8234 3.51374 32.5877C5.52714 32.1109 7.57101 31.4499 9.36621 30.7812C11.7495 32.1909 14.5303 33 17.5 33C26.3366 33 33.5 25.8366 33.5 17Z" fill="#FF924C" stroke="#404040" stroke-width="1.5" stroke-linejoin="round"/>
<path d="M11.4043 21.5703C14.071 25.6338 20.9281 25.6338 23.5948 21.5703" stroke="#404040" stroke-width="1.5" stroke-linecap="round" stroke-linejoin="round"/>
<path d="M12.166 11.668V13.1918" stroke="#404040" stroke-width="1.5" stroke-linecap="round" stroke-linejoin="round"/>
<path d="M22.834 11.668V13.1918" stroke="#404040" stroke-width="1.5" stroke-linecap="round" stroke-linejoin="round"/>
</svg>
