<svg width="21" height="20" viewBox="0 0 21 20" fill="none" xmlns="http://www.w3.org/2000/svg">
<g id="vuesax/bulk/flag">
<g id="flag">
<path id="Vector" d="M5.10449 18.3334C4.76283 18.3334 4.47949 18.0501 4.47949 17.7084V2.29175C4.47949 1.95008 4.76283 1.66675 5.10449 1.66675C5.44616 1.66675 5.72949 1.95008 5.72949 2.29175V17.7084C5.72949 18.0501 5.44616 18.3334 5.10449 18.3334Z" fill="#FF731A"/>
<path id="Vector_2" opacity="0.4" d="M15.8288 10.275L14.8121 9.2583C14.5704 9.04997 14.4288 8.74163 14.4204 8.39997C14.4038 8.02497 14.5538 7.64997 14.8288 7.37497L15.8288 6.37497C16.6954 5.5083 17.0204 4.67497 16.7454 4.01663C16.4788 3.36663 15.6538 3.0083 14.4371 3.0083H5.10378C4.92878 3.01663 4.78711 3.1583 4.78711 3.3333V13.3333C4.78711 13.5083 4.92878 13.65 5.10378 13.65H14.4371C15.6371 13.65 16.4454 13.2833 16.7204 12.625C16.9954 11.9583 16.6788 11.1333 15.8288 10.275Z" fill="#FF731A"/>
</g>
</g>
</svg>
