<svg width="28" height="28" viewBox="0 0 28 28" fill="none" xmlns="http://www.w3.org/2000/svg">
<path opacity="0.4" d="M25.2827 14.2102C25.2827 17.6731 23.751 20.7783 21.3281 22.8853C19.3104 24.6399 16.6746 25.7021 13.7908 25.7021C10.9069 25.7021 8.27112 24.6399 6.25339 22.8853C3.83053 20.7783 2.29883 17.6731 2.29883 14.2102C2.29883 7.86338 7.44394 2.71826 13.7908 2.71826C20.1376 2.71826 25.2827 7.86338 25.2827 14.2102Z" fill="#28303F"/>
<circle cx="13.7904" cy="11.9117" r="3.44758" fill="#28303F"/>
<path d="M21.3286 22.8852C20.187 19.8317 17.243 17.6577 13.7913 17.6577C10.3395 17.6577 7.39555 19.8317 6.25391 22.8852C8.27163 24.6398 10.9074 25.7021 13.7913 25.7021C16.6752 25.7021 19.3109 24.6398 21.3286 22.8852Z" fill="#28303F"/>
</svg>
