<svg width="18" height="18" viewBox="0 0 18 18" fill="none" xmlns="http://www.w3.org/2000/svg">
<path opacity="0.4" d="M2.25 6.75H15.75V13.5C15.75 15.1569 14.4069 16.5 12.75 16.5H5.25C3.59315 16.5 2.25 15.1569 2.25 13.5V6.75Z" fill="#28303F"/>
<path d="M12.75 2.625H5.25C3.59315 2.625 2.25 3.96815 2.25 5.625V6.75H15.75V5.625C15.75 3.96815 14.4069 2.625 12.75 2.625Z" fill="#28303F"/>
<path opacity="0.4" fill-rule="evenodd" clip-rule="evenodd" d="M6 0.9375C6.31066 0.9375 6.5625 1.18934 6.5625 1.5V3.75C6.5625 4.06066 6.31066 4.3125 6 4.3125C5.68934 4.3125 5.4375 4.06066 5.4375 3.75V1.5C5.4375 1.18934 5.68934 0.9375 6 0.9375ZM12 0.9375C12.3107 0.9375 12.5625 1.18934 12.5625 1.5V3.75C12.5625 4.06066 12.3107 4.3125 12 4.3125C11.6893 4.3125 11.4375 4.06066 11.4375 3.75V1.5C11.4375 1.18934 11.6893 0.9375 12 0.9375Z" fill="#28303F"/>
</svg>
