<svg width="34" height="34" viewBox="0 0 34 34" fill="none" xmlns="http://www.w3.org/2000/svg">
<path fill-rule="evenodd" clip-rule="evenodd" d="M29.5317 5.57539C27.651 3.65745 25.5573 3.06412 23.5911 3.20806C21.6781 3.34811 19.9553 4.17795 18.697 4.97614C17.7047 5.60559 16.2923 5.60559 15.3 4.97614C14.0417 4.17796 12.3189 3.34812 10.4059 3.20808C8.43968 3.06415 6.34601 3.65747 4.4653 5.57539C2.24499 7.83963 1.54839 10.6348 1.82812 13.4621C2.10462 16.2568 3.3305 19.0979 4.9655 21.6153C6.60485 24.1394 8.69896 26.4056 10.7998 28.0511C12.8545 29.6604 15.09 30.8125 16.9985 30.8125C18.907 30.8125 21.1426 29.6604 23.1972 28.0511C25.2981 26.4056 27.3922 24.1394 29.0316 21.6153C30.6665 19.0979 31.8924 16.2568 32.1689 13.4621C32.4486 10.6348 31.752 7.83963 29.5317 5.57539ZM19.8353 6.77056C20.948 6.06471 22.3253 5.43142 23.7463 5.32739C25.1141 5.22725 26.5884 5.60891 28.0145 7.0632C29.7191 8.8015 30.2834 10.9365 30.0542 13.2529C29.8218 15.6018 28.769 18.1182 27.2494 20.4578C25.7343 22.7907 23.7981 24.8812 21.8869 26.3782C19.9296 27.9113 18.1714 28.6875 16.9985 28.6875C15.8257 28.6875 14.0675 27.9113 12.1102 26.3782C10.199 24.8812 8.26279 22.7907 6.74761 20.4578C5.22807 18.1182 4.17519 15.6018 3.9428 13.2529C3.71362 10.9365 4.27798 8.80151 5.98255 7.0632C7.40861 5.60893 8.88289 5.22728 10.2507 5.32741C11.6717 5.43144 13.049 6.06473 14.1617 6.77057C15.8489 7.84079 18.1481 7.84079 19.8353 6.77056Z" fill="black"/>
</svg>
