<svg width="15" height="16" viewBox="0 0 15 16" fill="none" xmlns="http://www.w3.org/2000/svg">
<path d="M9.68851 7.76795L9.40687 7.35482C9.23988 7.46866 9.15784 7.67184 9.19898 7.86972C9.24012 8.0676 9.39634 8.22125 9.59487 8.2591L9.68851 7.76795ZM5.31149 7.76795L5.40513 8.2591C5.60366 8.22125 5.75988 8.0676 5.80102 7.86972C5.84216 7.67184 5.76012 7.46866 5.59313 7.35482L5.31149 7.76795ZM10.7143 4.96667C10.7143 5.93621 10.2089 6.80805 9.40687 7.35482L9.97015 8.18108C11.0179 7.46679 11.7143 6.29885 11.7143 4.96667H10.7143ZM7.5 2C9.30825 2 10.7143 3.36015 10.7143 4.96667H11.7143C11.7143 2.74401 9.79443 1 7.5 1V2ZM4.28571 4.96667C4.28571 3.36015 5.69175 2 7.5 2V1C5.20557 1 3.28571 2.74401 3.28571 4.96667H4.28571ZM5.59313 7.35482C4.79109 6.80805 4.28571 5.93621 4.28571 4.96667H3.28571C3.28571 6.29885 3.98207 7.46679 5.02985 8.18108L5.59313 7.35482ZM1.5 11.0332C1.5 10.4962 1.8203 9.93154 2.51179 9.41701C3.19956 8.90524 4.20133 8.48862 5.40513 8.2591L5.21784 7.2768C3.90848 7.52645 2.7545 7.98994 1.91482 8.61474C1.07886 9.23679 0.5 10.0652 0.5 11.0332H1.5ZM7.5 13.9999C5.77053 13.9999 4.22959 13.6249 3.1391 13.0433C2.02713 12.4503 1.5 11.716 1.5 11.0332H0.5C0.5 12.2651 1.42795 13.2641 2.66851 13.9257C3.93056 14.5988 5.63962 14.9999 7.5 14.9999V13.9999ZM13.5 11.0332C13.5 11.716 12.9729 12.4503 11.8609 13.0433C10.7704 13.6249 9.22947 13.9999 7.5 13.9999V14.9999C9.36038 14.9999 11.0694 14.5988 12.3315 13.9257C13.5721 13.2641 14.5 12.2651 14.5 11.0332H13.5ZM9.59487 8.2591C10.7987 8.48862 11.8004 8.90524 12.4882 9.41701C13.1797 9.93154 13.5 10.4962 13.5 11.0332H14.5C14.5 10.0652 13.9211 9.23679 13.0852 8.61474C12.2455 7.98994 11.0915 7.52645 9.78216 7.2768L9.59487 8.2591Z" fill="#404040"/>
</svg>
