<svg width="40" height="53" viewBox="0 0 20 23" fill="none" xmlns="http://www.w3.org/2000/svg">
<path d="M12.5019 0.163901C12.5001 0.0896898 12.4203 0.0397544 12.3545 0.0741247C7.26502 2.73278 7.43261 9.57707 7.4908 10.6413C7.49463 10.7113 7.42965 10.7588 7.36442 10.7332C6.85394 10.5321 5.07283 9.64202 5.00216 6.99172C5.00018 6.9174 4.92164 6.86745 4.8557 6.90177C1.95246 8.4129 0 11.2387 0 14.375C0 19.1385 4.47715 23 10 23C15.5229 23 20 19.1385 20 14.375C19.9999 7.43222 12.6385 5.95683 12.5019 0.163901Z" fill="#FF924C"/>
<path d="M11.6129 8.86967C11.6083 8.78446 11.5061 8.73852 11.4431 8.796C9.06219 10.9657 9.64976 13.6068 9.83274 14.2301C9.85238 14.297 9.8035 14.3652 9.7339 14.3609C9.21075 14.3289 7.37433 14.1133 6.33963 12.6632C6.30755 12.6183 6.2448 12.6056 6.19965 12.6374C4.67114 13.7146 4.28564 15.4667 4.28564 17.071C4.28564 20.0817 6.90797 22.1228 10.1428 22.1228C13.3776 22.1228 15.9999 19.861 15.9999 17.071C15.9999 13.0538 11.7921 12.1618 11.6129 8.86967Z" fill="#FFB180"/>
</svg>
