<svg width="21" height="20" viewBox="0 0 21 20" fill="none" xmlns="http://www.w3.org/2000/svg">
<path d="M5.10413 18.3337C4.76246 18.3337 4.47913 18.0503 4.47913 17.7087V2.29199C4.47913 1.95033 4.76246 1.66699 5.10413 1.66699C5.44579 1.66699 5.72913 1.95033 5.72913 2.29199V17.7087C5.72913 18.0503 5.44579 18.3337 5.10413 18.3337Z" fill="#FF731A"/>
<path opacity="0.4" d="M15.8291 10.2755L14.8125 9.25879C14.5708 9.05046 14.4291 8.74212 14.4208 8.40046C14.4041 8.02546 14.5541 7.65046 14.8291 7.37546L15.8291 6.37546C16.6958 5.50879 17.0208 4.67546 16.7458 4.01712C16.4791 3.36712 15.6541 3.00879 14.4375 3.00879H5.10414C4.92914 3.01712 4.78748 3.15879 4.78748 3.33379V13.3338C4.78748 13.5088 4.92914 13.6505 5.10414 13.6505H14.4375C15.6375 13.6505 16.4458 13.2838 16.7208 12.6255C16.9958 11.9588 16.6791 11.1338 15.8291 10.2755Z" fill="#FF731A"/>
</svg>
