<svg width="20" height="21" viewBox="0 0 20 21" fill="none" xmlns="http://www.w3.org/2000/svg">
<path d="M16.1271 8.13609L12.3354 4.34442C11.6415 3.66254 10.5292 3.66254 9.83539 4.34442L7.47706 6.66942C7.34293 6.80415 7.18822 6.91666 7.01872 7.00276L4.46039 8.28609C3.94634 8.54165 3.58675 9.02905 3.49425 9.59561C3.40175 10.1622 3.58765 10.7386 3.99372 11.1444L6.21872 13.3694L3.51872 16.0694C3.27501 16.3134 3.27501 16.7087 3.51872 16.9528C3.63776 17.0671 3.79539 17.1325 3.96039 17.1361C4.12609 17.1359 4.28496 17.07 4.40205 16.9528L7.10206 14.2528L9.32706 16.4778C9.73284 16.8838 10.3093 17.0697 10.8759 16.9772C11.4424 16.8847 11.9298 16.5251 12.1854 16.0111L13.4687 13.4361C13.5548 13.2666 13.6673 13.1119 13.8021 12.9778L16.1271 10.6528C16.8199 9.95694 16.8199 8.83191 16.1271 8.13609Z" fill="#595959"/>
</svg>
