<svg width="28" height="29" viewBox="0 0 28 29" fill="none" xmlns="http://www.w3.org/2000/svg">
<path opacity="0.4" d="M3.44727 10.8584H24.1327V21.2011C24.1327 23.7399 22.0747 25.7979 19.536 25.7979H8.04404C5.50531 25.7979 3.44727 23.7399 3.44727 21.2011V10.8584Z" fill="#28303F"/>
<path d="M19.536 4.53784H8.04404C5.50531 4.53784 3.44727 6.59589 3.44727 9.13462V10.8584H24.1327V9.13462C24.1327 6.59589 22.0747 4.53784 19.536 4.53784Z" fill="#28303F"/>
<path opacity="0.4" fill-rule="evenodd" clip-rule="evenodd" d="M9.19295 1.95215C9.66896 1.95215 10.0548 2.33803 10.0548 2.81404V6.26162C10.0548 6.73764 9.66896 7.12352 9.19295 7.12352C8.71694 7.12352 8.33105 6.73764 8.33105 6.26162V2.81404C8.33105 2.33803 8.71694 1.95215 9.19295 1.95215ZM18.3865 1.95215C18.8625 1.95215 19.2484 2.33803 19.2484 2.81404V6.26162C19.2484 6.73764 18.8625 7.12352 18.3865 7.12352C17.9105 7.12352 17.5246 6.73764 17.5246 6.26162V2.81404C17.5246 2.33803 17.9105 1.95215 18.3865 1.95215Z" fill="#28303F"/>
</svg>
