<svg width="48" height="60" viewBox="0 0 48 60" fill="none" xmlns="http://www.w3.org/2000/svg">
<rect x="2" y="8" width="44" height="44" rx="22" fill="white"/>
<path fill-rule="evenodd" clip-rule="evenodd" d="M13 29.1484C13 23.7646 17.56 19 23.2 19C28.84 19 33.4 23.7646 33.4 29.1484C33.4 31.8822 31.8039 35.0491 29.8303 37.4907C28.8332 38.7243 27.7103 39.8105 26.5882 40.5944C25.4829 41.3667 24.3005 41.9 23.2 41.9C22.0995 41.9 20.9171 41.3667 19.8118 40.5944C18.6897 39.8105 17.5668 38.7243 16.5697 37.4907C14.5961 35.0491 13 31.8822 13 29.1484ZM23.2 20.4C18.3465 20.4 14.4 24.5244 14.4 29.1484C14.4 31.4186 15.7726 34.2775 17.6585 36.6106C18.591 37.7644 19.6205 38.753 20.6136 39.4468C21.6235 40.1524 22.5193 40.5 23.2 40.5C23.8807 40.5 24.7765 40.1524 25.7864 39.4468C26.7795 38.753 27.809 37.7644 28.7415 36.6106C30.6274 34.2775 32 31.4186 32 29.1484C32 24.5244 28.0535 20.4 23.2 20.4ZM20.4356 26.4426C21.1111 25.6759 22.0826 25.1156 23.2 25.1156C24.3174 25.1156 25.2889 25.6759 25.9644 26.4426C26.6379 27.207 27.0667 28.2294 27.0667 29.2617C27.0667 31.36 25.3122 33.0195 23.2 33.0195C21.0878 33.0195 19.3333 31.36 19.3333 29.2617C19.3333 28.2294 19.7621 27.207 20.4356 26.4426ZM21.4861 27.3681C21.0135 27.9044 20.7333 28.6051 20.7333 29.2617C20.7333 30.541 21.8144 31.6195 23.2 31.6195C24.5856 31.6195 25.6667 30.541 25.6667 29.2617C25.6667 28.6051 25.3865 27.9044 24.9139 27.3681C24.4433 26.8339 23.8315 26.5156 23.2 26.5156C22.5685 26.5156 21.9567 26.8339 21.4861 27.3681Z" fill="#404040"/>
</svg>
