<svg width="48" height="60" viewBox="0 0 48 60" fill="none" xmlns="http://www.w3.org/2000/svg">
<rect x="2" y="8" width="44" height="44" rx="22" fill="white"/>
<path fill-rule="evenodd" clip-rule="evenodd" d="M24 20.5047C18.7197 20.5047 14.4393 24.9797 14.4393 30.5C14.4393 32.1457 14.8191 33.6964 15.4915 35.0636C15.7109 35.5097 15.7697 36.0491 15.5982 36.5567L14.6439 39.3802C14.4999 39.8061 14.8924 40.2164 15.2998 40.0659L17.8931 39.1079C18.3981 38.9213 18.9352 38.9953 19.3714 39.2481C20.7421 40.0426 22.3194 40.4953 24 40.4953C29.2803 40.4953 33.5607 36.0203 33.5607 30.5C33.5607 24.9797 29.2803 20.5047 24 20.5047ZM13 30.5C13 24.1487 17.9249 19 24 19C30.0751 19 35 24.1487 35 30.5C35 36.8513 30.0751 42 24 42C22.0691 42 20.2523 41.4792 18.6735 40.5641C18.5647 40.501 18.455 40.4961 18.3726 40.5266L15.7793 41.4846C14.2311 42.0565 12.7398 40.4974 13.2868 38.8789L14.2411 36.0554C14.2692 35.9725 14.2661 35.8626 14.2115 35.7517C13.4369 34.1765 13 32.3905 13 30.5Z" fill="#404040"/>
<path d="M20.1963 30.5537C20.1963 31.2957 19.6209 31.8972 18.9112 31.8972C18.2015 31.8972 17.6262 31.2957 17.6262 30.5537C17.6262 29.8118 18.2015 29.2103 18.9112 29.2103C19.6209 29.2103 20.1963 29.8118 20.1963 30.5537Z" fill="#404040"/>
<path d="M25.3364 30.5537C25.3364 31.2957 24.7611 31.8972 24.0514 31.8972C23.3417 31.8972 22.7664 31.2957 22.7664 30.5537C22.7664 29.8118 23.3417 29.2103 24.0514 29.2103C24.7611 29.2103 25.3364 29.8118 25.3364 30.5537Z" fill="#404040"/>
<path d="M30.4766 30.5537C30.4766 31.2957 29.9013 31.8972 29.1916 31.8972C28.4819 31.8972 27.9065 31.2957 27.9065 30.5537C27.9065 29.8118 28.4819 29.2103 29.1916 29.2103C29.9013 29.2103 30.4766 29.8118 30.4766 30.5537Z" fill="#404040"/>
</svg>
