<svg width="48" height="60" viewBox="0 0 48 60" fill="none" xmlns="http://www.w3.org/2000/svg">
<rect x="2" y="8" width="44" height="44" rx="22" fill="white"/>
<path fill-rule="evenodd" clip-rule="evenodd" d="M23.9982 19C24.4156 19 24.7539 19.3202 24.7539 19.7151V21.933C24.7539 22.328 24.4156 22.6481 23.9982 22.6481C23.5809 22.6481 23.2426 22.328 23.2426 21.933V19.7151C23.2426 19.3202 23.5809 19 23.9982 19ZM14.1589 21.8725C14.454 21.5932 14.9324 21.5932 15.2275 21.8725L16.6597 23.2279C16.9548 23.5072 16.9548 23.96 16.6597 24.2393C16.3646 24.5185 15.8862 24.5185 15.5911 24.2393L14.1589 22.8838C13.8638 22.6046 13.8638 22.1518 14.1589 21.8725ZM33.8316 21.8748C34.1267 22.1541 34.1267 22.6069 33.8316 22.8862L32.4019 24.2393C32.1068 24.5185 31.6283 24.5185 31.3332 24.2393C31.0382 23.96 31.0382 23.5072 31.3332 23.2279L32.763 21.8748C33.0581 21.5955 33.5365 21.5955 33.8316 21.8748ZM13.1227 34.378C13.1227 28.6941 17.9925 24.0853 23.9982 24.0853C30.004 24.0853 34.8738 28.6941 34.8738 34.378V40.5671H35.2444C35.6617 40.5671 36 40.8873 36 41.2822C36 41.6772 35.6617 41.9973 35.2444 41.9973H34.1838C34.1622 41.9991 34.1403 42 34.1182 42H13.8783C13.8562 42 13.8343 41.9991 13.8127 41.9973H12.7556C12.3383 41.9973 12 41.6772 12 41.2822C12 40.8873 12.3383 40.5671 12.7556 40.5671H13.1227V34.378ZM33.3626 40.5671H14.6339V34.378C14.6339 29.484 18.8271 25.5156 23.9982 25.5156C29.1694 25.5156 33.3626 29.484 33.3626 34.378V40.5671Z" fill="#404040"/>
<path d="M19.5323 35.8753C19.514 35.8242 19.4799 35.7745 19.4254 35.7263C19.37 35.6773 19.287 35.6245 19.1723 35.5691L19.1708 35.5683C19.0581 35.5117 18.9071 35.4524 18.716 35.3909L18.7147 35.3905C18.4898 35.3152 18.275 35.2304 18.0702 35.1361L18.0688 35.1355C17.8633 35.0373 17.6788 34.923 17.516 34.7924C17.3498 34.6591 17.2177 34.5028 17.1207 34.3238L17.1202 34.3229C17.0233 34.1396 16.9767 33.929 16.9767 33.6941C16.9767 33.4646 17.0262 33.2542 17.1271 33.0649C17.227 32.8776 17.3672 32.7178 17.5464 32.5862C17.7249 32.4528 17.9334 32.3525 18.1703 32.2844C18.4078 32.2139 18.667 32.1792 18.9471 32.1792C19.3222 32.1792 19.6565 32.2477 19.9473 32.388C20.2395 32.5256 20.4694 32.721 20.6339 32.9739C20.701 33.0761 20.7544 33.1849 20.7941 33.3004C20.8544 33.4758 20.7998 33.6413 20.686 33.7589C20.5739 33.8747 20.4043 33.9455 20.2238 33.9455H20.0696C19.7858 33.9455 19.5968 33.7177 19.4945 33.529L19.5905 33.4823L19.4933 33.5267C19.4491 33.4398 19.3814 33.3718 19.287 33.3214C19.197 33.2725 19.0773 33.2444 18.9234 33.2444C18.7722 33.2444 18.6529 33.2681 18.5609 33.3104L18.5599 33.3109C18.4682 33.352 18.4027 33.4065 18.3586 33.4732C18.315 33.5424 18.2932 33.6176 18.2932 33.701C18.2932 33.7643 18.3086 33.8202 18.3388 33.8706C18.3733 33.9222 18.4239 33.974 18.4937 34.0253C18.5676 34.0756 18.66 34.1253 18.772 34.1739C18.8848 34.2228 19.0151 34.27 19.1632 34.3153L19.165 34.3159C19.4335 34.4029 19.6728 34.4999 19.8821 34.6072C20.0951 34.7152 20.2767 34.8388 20.4252 34.9788C20.5751 35.12 20.6884 35.2807 20.7641 35.4607C20.8424 35.6413 20.8803 35.8433 20.8803 36.0647C20.8803 36.3014 20.8351 36.5154 20.7417 36.7045C20.6511 36.8926 20.5187 37.0531 20.3458 37.1854C20.1755 37.3151 19.9727 37.4123 19.7399 37.4781C19.507 37.5438 19.2492 37.576 18.9675 37.576C18.7091 37.576 18.4542 37.5423 18.2032 37.475C17.95 37.4046 17.7186 37.2974 17.5118 37.1536C17.3041 37.0076 17.1375 36.8218 17.0129 36.5983L17.0122 36.5972C16.9683 36.5159 16.9324 36.4298 16.9042 36.3388C16.8495 36.1619 16.9069 35.9963 17.0222 35.8787C17.1358 35.7628 17.3062 35.6918 17.4876 35.6918H17.6216C17.9197 35.6918 18.1163 35.9271 18.2046 36.1459C18.2419 36.2362 18.2931 36.3059 18.3569 36.3584C18.4242 36.4119 18.5071 36.4516 18.6081 36.4759C18.713 36.5012 18.8325 36.5144 18.9675 36.5144C19.1226 36.5144 19.2379 36.4925 19.3197 36.4553C19.4068 36.4145 19.4659 36.3619 19.5033 36.2991C19.5432 36.2321 19.5639 36.157 19.5639 36.0716C19.5639 35.9952 19.5528 35.9306 19.5327 35.8763L19.5323 35.8753Z" fill="#404040"/>
<path fill-rule="evenodd" clip-rule="evenodd" d="M26.6908 34.7131V34.9337C26.6908 35.3093 26.6253 35.6465 26.4943 35.9451C26.3662 36.2438 26.1825 36.4984 25.9433 36.7088C25.707 36.9192 25.4251 37.081 25.0976 37.1941C24.773 37.305 24.4128 37.3604 24.017 37.3604C23.6212 37.3604 23.2596 37.305 22.9321 37.1941C22.6046 37.081 22.3199 36.9192 22.0778 36.7088C21.8386 36.4984 21.6536 36.2438 21.5226 35.9451C21.3916 35.6465 21.3261 35.3093 21.3261 34.9337V34.7131C21.3261 34.3375 21.3916 34.0004 21.5226 33.7017C21.6536 33.4008 21.8372 33.1451 22.0736 32.9347C22.3128 32.7242 22.5961 32.5636 22.9235 32.4527C23.251 32.3396 23.6126 32.283 24.0085 32.283C24.4043 32.283 24.7659 32.3396 25.0934 32.4527C25.4208 32.5636 25.7027 32.7242 25.9391 32.9347C26.1783 33.1451 26.3634 33.4008 26.4943 33.7017C26.6253 34.0004 26.6908 34.3375 26.6908 34.7131ZM24.0616 36.4946C24.9931 36.4946 25.7483 35.7439 25.7483 34.8178C25.7483 33.8917 24.9931 33.141 24.0616 33.141C23.1301 33.141 22.375 33.8917 22.375 34.8178C22.375 35.7439 23.1301 36.4946 24.0616 36.4946Z" fill="#404040"/>
<path fill-rule="evenodd" clip-rule="evenodd" d="M22.8868 32.355C23.2275 32.2374 23.6017 32.1792 24.0083 32.1792C24.415 32.1792 24.7892 32.2374 25.13 32.355C25.4701 32.4703 25.7649 32.6379 26.0127 32.8584C26.2638 33.0794 26.4575 33.3475 26.594 33.6612C26.7313 33.9741 26.7987 34.3246 26.7987 34.7115V34.9321C26.7987 35.3189 26.7312 35.6695 26.5941 35.9823C26.4603 36.2939 26.268 36.5609 26.017 36.7818C25.7693 37.0023 25.4746 37.171 25.1345 37.2885C24.7966 37.4039 24.4234 37.461 24.0169 37.461C23.6104 37.461 23.2362 37.4041 22.8956 37.2887C22.5556 37.1713 22.2578 37.0025 22.0047 36.7824C21.7536 36.5616 21.5594 36.2943 21.4228 35.9827C21.2855 35.6698 21.218 35.319 21.218 34.9321V34.7115C21.218 34.3246 21.2855 33.9739 21.4228 33.6609C21.5592 33.3475 21.7514 33.0796 21.9995 32.8586C22.25 32.6383 22.5466 32.4703 22.8868 32.355ZM24.0083 32.3836C23.6235 32.3836 23.2746 32.4386 22.9605 32.5471C22.646 32.6535 22.3749 32.8074 22.1472 33.0077C21.9228 33.2075 21.7477 33.4508 21.6223 33.739C21.4975 34.0234 21.4339 34.3472 21.4339 34.7115V34.9321C21.4339 35.2964 21.4974 35.62 21.6222 35.9044C21.7474 36.1901 21.9238 36.4322 22.151 36.6321C22.3818 36.8328 22.6539 36.9877 22.9686 37.0964C23.2829 37.2028 23.6319 37.2567 24.0169 37.2567C24.402 37.2567 24.7495 37.2028 25.0608 37.0965C25.3754 36.9877 25.6444 36.833 25.8693 36.6328C26.0964 36.4329 26.2717 36.1906 26.3942 35.9051C26.519 35.6207 26.5828 35.2964 26.5828 34.9321V34.7115C26.5828 34.3472 26.5193 34.0237 26.3945 33.7393C26.2692 33.4512 26.0927 33.2077 25.8655 33.0079C25.6407 32.8078 25.3714 32.6538 25.0569 32.5473C24.7428 32.4388 24.3932 32.3836 24.0083 32.3836ZM24.0615 33.2416C23.1946 33.2416 22.4828 33.9418 22.4828 34.8162C22.4828 35.6906 23.1946 36.3908 24.0615 36.3908C24.9285 36.3908 25.6402 35.6906 25.6402 34.8162C25.6402 33.9418 24.9285 33.2416 24.0615 33.2416ZM22.2669 34.8162C22.2669 33.8385 23.0654 33.0372 24.0615 33.0372C25.0576 33.0372 25.8561 33.8385 25.8561 34.8162C25.8561 35.7939 25.0576 36.5952 24.0615 36.5952C23.0654 36.5952 22.2669 35.7939 22.2669 34.8162Z" fill="#404040"/>
<path d="M29.7915 36.0716C29.7915 35.986 29.7791 35.9097 29.7542 35.8426C29.7294 35.7731 29.6842 35.7095 29.6188 35.6517C29.5533 35.5938 29.4607 35.536 29.3411 35.4781C29.2214 35.4179 29.0645 35.3566 28.8704 35.2942C28.6492 35.2201 28.4381 35.1368 28.2371 35.0443C28.0385 34.9494 27.8613 34.8395 27.7055 34.7145C27.5497 34.5896 27.4267 34.4438 27.3364 34.2772C27.2483 34.1106 27.2043 33.9162 27.2043 33.6941C27.2043 33.4789 27.2506 33.2845 27.3432 33.111C27.4357 32.9374 27.5655 32.7893 27.7326 32.6667C27.8996 32.5417 28.096 32.4469 28.3218 32.3821C28.5476 32.315 28.7959 32.2814 29.0668 32.2814C29.428 32.2814 29.7452 32.3474 30.0184 32.4793C30.2938 32.6088 30.5083 32.7916 30.6618 33.0277C30.7243 33.1228 30.774 33.2242 30.8111 33.332C30.9048 33.6047 30.6464 33.8433 30.3435 33.8433H30.1893C29.9715 33.8433 29.8096 33.6658 29.7102 33.4823C29.656 33.3759 29.5725 33.2926 29.4596 33.2324C29.349 33.1723 29.2102 33.1422 29.0431 33.1422C28.8806 33.1422 28.744 33.1676 28.6334 33.2186C28.525 33.2671 28.4426 33.3343 28.3861 33.4199C28.332 33.5055 28.3049 33.5992 28.3049 33.701C28.3049 33.782 28.3252 33.856 28.3658 33.9231C28.4087 33.9879 28.4697 34.0493 28.5487 34.1071C28.63 34.1626 28.7293 34.2159 28.8467 34.2668C28.9641 34.3177 29.0984 34.3663 29.2497 34.4125C29.5138 34.4982 29.7475 34.593 29.9506 34.6972C30.1561 34.8013 30.3288 34.9193 30.4688 35.0512C30.6087 35.1831 30.7137 35.3323 30.7837 35.4989C30.8559 35.6655 30.892 35.8541 30.892 36.0647C30.892 36.2892 30.8492 36.4881 30.7634 36.6617C30.6798 36.8352 30.5579 36.9833 30.3976 37.106C30.2396 37.2263 30.05 37.3177 29.8287 37.3802C29.6075 37.4426 29.3603 37.4739 29.0871 37.4739C28.8388 37.4739 28.5938 37.4415 28.3523 37.3767C28.1107 37.3096 27.8917 37.2078 27.6953 37.0713C27.5012 36.9347 27.3454 36.7612 27.228 36.5506C27.1873 36.4754 27.1538 36.3952 27.1275 36.3101C27.0419 36.0332 27.3024 35.794 27.6073 35.794H27.7412C27.9721 35.794 28.1413 35.9786 28.2236 36.1827C28.2665 36.2868 28.3275 36.3713 28.4065 36.4361C28.4877 36.5009 28.5859 36.5472 28.7011 36.5749C28.8162 36.6027 28.9449 36.6166 29.0871 36.6166C29.2519 36.6166 29.3851 36.5934 29.4867 36.5472C29.5906 36.4986 29.6673 36.4326 29.717 36.3493C29.7667 36.266 29.7915 36.1735 29.7915 36.0716Z" fill="#404040"/>
<path fill-rule="evenodd" clip-rule="evenodd" d="M29.652 35.8753C29.6337 35.8242 29.5996 35.7745 29.5451 35.7263C29.4897 35.6773 29.4067 35.6245 29.292 35.5691L29.2905 35.5683C29.1778 35.5117 29.0268 35.4524 28.8357 35.3909L28.8344 35.3905C28.6095 35.3152 28.3947 35.2304 28.1899 35.1361L28.1885 35.1355C27.9829 35.0373 27.7985 34.923 27.6357 34.7924C27.4694 34.6591 27.3373 34.5028 27.2403 34.3238L27.2398 34.3229C27.143 34.1396 27.0964 33.929 27.0964 33.6941C27.0964 33.4646 27.1458 33.2542 27.2468 33.0649C27.3467 32.8776 27.4869 32.7178 27.666 32.5862C27.8446 32.4528 28.0531 32.3525 28.29 32.2844C28.5275 32.2139 28.7867 32.1792 29.0668 32.1792C29.4418 32.1792 29.7762 32.2477 30.0669 32.388C30.3592 32.5256 30.5891 32.721 30.7536 32.9739C30.8207 33.0761 30.874 33.1849 30.9137 33.3004C30.974 33.4758 30.9195 33.6413 30.8056 33.7589C30.6936 33.8747 30.524 33.9455 30.3435 33.9455H30.1893C29.9055 33.9455 29.7165 33.7177 29.6142 33.529L29.7102 33.4823C29.8096 33.6658 29.9715 33.8433 30.1893 33.8433H30.3435C30.6464 33.8433 30.9048 33.6047 30.8111 33.332C30.774 33.2242 30.7243 33.1228 30.6618 33.0277C30.5083 32.7916 30.2938 32.6088 30.0184 32.4793C29.7452 32.3474 29.428 32.2814 29.0668 32.2814C28.7959 32.2814 28.5476 32.315 28.3218 32.3821C28.096 32.4469 27.8996 32.5417 27.7326 32.6667C27.5655 32.7893 27.4357 32.9374 27.3432 33.111C27.2506 33.2845 27.2043 33.4789 27.2043 33.6941C27.2043 33.9162 27.2483 34.1106 27.3364 34.2772C27.4267 34.4438 27.5497 34.5896 27.7055 34.7145C27.8613 34.8395 28.0385 34.9494 28.2371 35.0443C28.4381 35.1368 28.6492 35.2201 28.8704 35.2942C29.0645 35.3566 29.2214 35.4179 29.3411 35.4781C29.4607 35.536 29.5533 35.5938 29.6188 35.6517C29.6842 35.7095 29.7294 35.7731 29.7542 35.8426C29.7791 35.9097 29.7915 35.986 29.7915 36.0716C29.7915 36.1735 29.7667 36.266 29.717 36.3493C29.6673 36.4326 29.5906 36.4986 29.4867 36.5472C29.3851 36.5934 29.2519 36.6166 29.0871 36.6166C28.9449 36.6166 28.8162 36.6027 28.7011 36.5749C28.5859 36.5472 28.4877 36.5009 28.4065 36.4361C28.3275 36.3713 28.2665 36.2868 28.2236 36.1827C28.1413 35.9786 27.9721 35.794 27.7412 35.794H27.6073C27.3024 35.794 27.0419 36.0332 27.1275 36.3101C27.1538 36.3952 27.1873 36.4754 27.228 36.5506C27.3454 36.7612 27.5012 36.9347 27.6953 37.0713C27.8917 37.2078 28.1107 37.3096 28.3523 37.3767C28.5938 37.4415 28.8388 37.4739 29.0871 37.4739C29.3603 37.4739 29.6075 37.4426 29.8287 37.3802C30.05 37.3177 30.2396 37.2263 30.3976 37.106C30.5579 36.9833 30.6798 36.8352 30.7634 36.6617C30.8492 36.4881 30.892 36.2892 30.892 36.0647C30.892 35.8541 30.8559 35.6655 30.7837 35.4989C30.7137 35.3323 30.6087 35.1831 30.4688 35.0512C30.3288 34.9193 30.1561 34.8013 29.9506 34.6972C29.7475 34.593 29.5138 34.4982 29.2497 34.4125C29.0984 34.3663 28.9641 34.3177 28.8467 34.2668C28.7293 34.2159 28.63 34.1626 28.5487 34.1071C28.4697 34.0493 28.4087 33.9879 28.3658 33.9231C28.3252 33.856 28.3049 33.782 28.3049 33.701C28.3049 33.5992 28.332 33.5055 28.3861 33.4199C28.4426 33.3343 28.525 33.2671 28.6334 33.2186C28.744 33.1676 28.8806 33.1422 29.0431 33.1422C29.2102 33.1422 29.349 33.1723 29.4596 33.2324C29.5725 33.2926 29.656 33.3759 29.7102 33.4823L29.613 33.5267C29.5687 33.4398 29.5011 33.3718 29.4067 33.3214C29.3167 33.2725 29.197 33.2444 29.0431 33.2444C28.8919 33.2444 28.7725 33.2681 28.6806 33.3104L28.6796 33.3109C28.5879 33.352 28.5224 33.4065 28.4783 33.4732C28.4347 33.5424 28.4128 33.6176 28.4128 33.701C28.4128 33.7643 28.4283 33.8202 28.4585 33.8706C28.493 33.9222 28.5436 33.974 28.6133 34.0253C28.6873 34.0756 28.7797 34.1253 28.8917 34.1739C29.0045 34.2228 29.1348 34.27 29.2829 34.3153L29.2847 34.3159C29.5532 34.4029 29.7925 34.4999 30.0018 34.6072C30.2148 34.7152 30.3964 34.8388 30.5449 34.9788C30.6948 35.12 30.8081 35.2807 30.8838 35.4607C30.962 35.6413 31 35.8433 31 36.0647C31 36.3014 30.9548 36.5154 30.8614 36.7045C30.7708 36.8926 30.6384 37.0531 30.4655 37.1854C30.2952 37.3151 30.0924 37.4123 29.8596 37.4781C29.6267 37.5438 29.3689 37.576 29.0871 37.576C28.8287 37.576 28.5739 37.5423 28.3229 37.475C28.0697 37.4046 27.8383 37.2974 27.6314 37.1536C27.4238 37.0076 27.2572 36.8218 27.1326 36.5983L27.1319 36.5972C27.088 36.5159 27.052 36.4298 27.0239 36.3388C26.9692 36.1619 27.0266 35.9963 27.1418 35.8787C27.2555 35.7628 27.4259 35.6918 27.6073 35.6918H27.7412C28.0394 35.6918 28.236 35.9271 28.3243 36.1459C28.3616 36.2362 28.4128 36.3059 28.4766 36.3584C28.5439 36.4119 28.6268 36.4516 28.7277 36.4759C28.8327 36.5012 28.9522 36.5144 29.0871 36.5144C29.2423 36.5144 29.3576 36.4925 29.4394 36.4553C29.5265 36.4145 29.5855 36.3619 29.623 36.2991C29.6629 36.2321 29.6835 36.157 29.6835 36.0716C29.6835 35.9952 29.6725 35.9306 29.6524 35.8763L29.652 35.8753Z" fill="#404040"/>
</svg>
