<svg width="121" height="121" viewBox="0 0 121 121" fill="none" xmlns="http://www.w3.org/2000/svg">
<rect width="121" height="121" rx="60.5" fill="white"/>
<g clip-path="url(#clip0_1716_70293)">
<g clip-path="url(#clip1_1716_70293)">
<path d="M70.2976 75.8327H63.8449V61.0289C64.4896 61.0289 65.1292 61.0236 65.7687 61.0289C66.7234 61.0367 67.6248 60.8606 68.4258 60.305C69.8208 59.336 70.3575 57.4462 69.6893 55.8382C69.0094 54.2014 67.3018 53.2598 65.5759 53.5663C63.8983 53.8649 62.5749 55.3843 62.5306 57.0824C62.5124 57.7775 62.5111 58.4739 62.5306 59.1691C62.541 59.5434 62.446 59.7234 62.0279 59.7181C60.5729 59.6999 59.118 59.7012 57.6644 59.7181C57.2632 59.7234 57.1382 59.576 57.1434 59.1847C57.1538 58.4244 57.1694 57.6601 57.0939 56.905C56.892 54.8678 55.2899 53.4854 53.2436 53.5324C51.3967 53.5741 49.7789 55.1496 49.6656 57.0172C49.5458 58.9826 50.9108 60.6767 52.8998 60.9454C53.6696 61.0497 54.4589 61.0289 55.2391 61.0158C55.7002 61.008 55.8891 61.1175 55.8878 61.6288C55.8695 66.1935 55.876 70.7594 55.8799 75.3241C55.8799 75.6306 55.876 75.8758 55.4501 75.8732C53.4546 75.8601 51.4592 75.868 49.4116 75.868C49.2748 74.9015 49.1785 73.9599 49.0039 73.0326C48.479 70.2391 47.2559 67.7715 45.3894 65.6379C43.0488 62.963 41.0768 60.0611 40.0087 56.6429C37.9181 49.9602 39.123 43.7822 43.1973 38.182C46.8469 33.1635 51.8187 30.2095 58.0044 29.6043C64.0403 29.0135 69.3402 30.9503 73.7362 35.0898C78.764 39.824 81.0655 45.7215 80.5211 52.6325C80.1981 56.7381 78.4566 60.3194 76.0078 63.5733C74.9124 65.0301 73.6646 66.3826 72.676 67.9072C71.1859 70.2038 70.4617 72.7901 70.3419 75.5341C70.338 75.6175 70.3171 75.6997 70.2963 75.834L70.2976 75.8327Z" fill="#FF924C"/>
<path d="M57.1499 68.3245C57.1499 66.0892 57.1616 63.8525 57.1408 61.6171C57.1356 61.1241 57.2567 60.9233 57.7907 60.9376C59.1558 60.9728 60.5221 60.965 61.8885 60.9402C62.3535 60.9311 62.5371 61.0445 62.5358 61.5519C62.5189 66.1113 62.5215 70.6695 62.5332 75.2289C62.5332 75.6632 62.4303 75.8458 61.9549 75.8367C60.5456 75.8093 59.1362 75.8106 57.7269 75.8367C57.2567 75.8458 57.1395 75.6685 57.1434 75.2289C57.159 72.9283 57.1512 70.6264 57.1512 68.3259L57.1499 68.3245Z" fill="#FF924C"/>
<path d="M70.3425 77.1004V80.7952H49.3966C49.3966 79.6462 49.3862 78.5428 49.4122 77.4395C49.4148 77.3247 49.6297 77.193 49.7691 77.1108C49.8512 77.0639 49.9814 77.0991 50.0895 77.0991C56.623 77.0991 63.1564 77.0991 69.6899 77.0991H70.3412L70.3425 77.1004Z" fill="#FF924C"/>
<path d="M49.3945 82.1802H70.3469C70.3469 82.8975 70.3964 83.5887 70.3326 84.2695C70.2753 84.8903 69.6931 85.3846 69.0444 85.4772C68.8099 85.5111 68.5677 85.5046 68.3293 85.5046C62.7089 85.5059 57.0872 85.5059 51.4668 85.5046C49.9286 85.5046 49.3958 84.9685 49.3945 83.427C49.3945 83.037 49.3945 82.6484 49.3945 82.1802Z" fill="#FF924C"/>
<path d="M65.1716 86.8049C64.9918 89.3977 62.5952 91.4987 59.8677 91.4987C57.1415 91.4987 54.7488 89.4029 54.5625 86.8049H65.1716Z" fill="#FF924C"/>
<path d="M54.1938 59.6594C53.8682 59.6594 53.5425 59.6659 53.2182 59.6581C51.9287 59.6242 50.9258 58.6604 50.8268 57.3679C50.733 56.1316 51.6695 54.9734 52.9147 54.7869C54.2394 54.5887 55.5263 55.3477 55.7451 56.5972C55.9001 57.4853 55.8519 58.4113 55.8506 59.3203C55.8506 59.4338 55.5849 59.6268 55.4273 59.6438C55.0209 59.6907 54.6054 59.6594 54.1938 59.6594Z" fill="#FF924C"/>
<path d="M65.3895 59.6569C63.8525 59.6608 63.8486 59.6608 63.8564 58.1284C63.8577 57.7384 63.8577 57.3432 63.9216 56.9611C64.1417 55.623 65.2632 54.7623 66.5644 54.9031C67.8135 55.0374 68.806 56.1173 68.7787 57.3106C68.7487 58.5861 67.7119 59.5969 66.3677 59.6556C66.0434 59.6699 65.7164 59.6582 65.3908 59.6582L65.3895 59.6569Z" fill="#FF924C"/>
</g>
</g>
<defs>
<clipPath id="clip0_1716_70293">
<rect width="62" height="62" fill="white" transform="translate(29 29.5)"/>
</clipPath>
<clipPath id="clip1_1716_70293">
<rect width="41.6" height="62" fill="white" transform="translate(39 29.5)"/>
</clipPath>
</defs>
</svg>
