<svg width="121" height="121" viewBox="0 0 121 121" fill="none" xmlns="http://www.w3.org/2000/svg">
<rect width="121" height="121" rx="60.5" fill="white"/>
<g clip-path="url(#clip0_1716_61920)">
<g clip-path="url(#clip1_1716_61920)">
<path d="M77.128 39.4895C78.3426 40.6903 79.5994 41.931 80.7946 43.1124C68.405 55.5155 56.0081 67.9259 43.5024 80.4464C42.2988 79.2492 41.0371 77.9928 39.8008 76.7618C52.3234 64.2571 64.7276 51.8721 77.128 39.4895Z" fill="#FF924C"/>
<path d="M81.8396 44.1608C82.7795 45.1294 83.8138 46.1947 84.8856 47.2999C84.8142 47.3761 84.6727 47.5357 84.5227 47.6869C72.6194 59.5858 60.7112 71.4798 48.8224 83.392C48.3482 83.8673 48.0289 83.9519 47.493 83.5214C46.5373 82.756 45.5321 82.0534 44.6055 81.369C57.0543 68.9284 69.4488 56.5434 81.8408 44.1608H81.8396Z" fill="#FF924C"/>
<path d="M73.0926 35.4301C74.2418 36.5643 75.2277 37.5365 76.1555 38.4519C63.778 50.8321 51.3933 63.2207 38.9396 75.6771C38.2041 74.6662 37.4117 73.6045 36.6666 72.5113C36.5892 72.3976 36.7295 72.0325 36.8722 71.8873C38.6553 70.0795 40.4589 68.2935 42.2541 66.4978C52.3985 56.3535 62.5442 46.2092 72.6825 36.0589C72.864 35.8775 72.9704 35.6199 73.0914 35.4301H73.0926Z" fill="#FF924C"/>
<path d="M85.9711 46.2394C82.0517 42.3469 78.1566 38.4785 74.2227 34.5703C74.3448 34.4349 74.4682 34.2861 74.6049 34.1495C75.8739 32.8846 77.1428 31.6185 78.4154 30.3573C79.5695 29.2146 81.3247 29.2122 82.4715 30.3537C84.9683 32.8399 87.4627 35.3273 89.9546 37.8195C91.3518 39.2162 91.3457 40.8704 89.9474 42.2756C88.7546 43.4739 87.5606 44.6723 86.3667 45.8694C86.2264 46.0097 86.0776 46.1415 85.9723 46.2394H85.9711Z" fill="#FF924C"/>
<path d="M35.7847 73.3276C38.8779 77.8138 42.6751 81.5987 47.3469 84.8189C46.2074 85.3631 45.2493 85.9145 44.2259 86.2906C41.2235 87.3946 38.1992 88.4382 35.1726 89.4721C34.9004 89.5652 34.4964 89.5108 34.2375 89.3693C32.8996 88.6401 31.8484 87.5917 31.1129 86.2579C30.9702 85.9992 30.9133 85.5941 31.0065 85.3196C32.0419 82.2735 33.0883 79.2298 34.1928 76.208C34.5617 75.1995 35.1037 74.2538 35.5658 73.2804C35.6383 73.2961 35.7109 73.3118 35.7835 73.3276H35.7847Z" fill="#FF924C"/>
<path d="M30.3016 87.1431C31.3032 88.154 32.2806 89.1407 33.3391 90.2085C32.4427 90.6136 31.4931 91.1928 30.4637 91.4649C29.5117 91.7164 28.7351 90.5398 29.0859 89.5652C29.1125 89.4902 29.1439 89.4164 29.1802 89.3451C29.5613 88.5954 29.9435 87.8468 30.3028 87.1443L30.3016 87.1431Z" fill="#FF924C"/>
</g>
</g>
<defs>
<clipPath id="clip0_1716_61920">
<rect width="62" height="62" fill="white" transform="translate(29 29.5)"/>
</clipPath>
<clipPath id="clip1_1716_61920">
<rect width="62" height="62" fill="white" transform="translate(29 29.5)"/>
</clipPath>
</defs>
</svg>
