<svg width="121" height="121" viewBox="0 0 121 121" fill="none" xmlns="http://www.w3.org/2000/svg">
<rect width="121" height="121" rx="60.5" fill="white"/>
<g clip-path="url(#clip0_1716_61875)">
<g clip-path="url(#clip1_1716_61875)">
<path d="M39.0561 45.3267C42.9434 48.3753 47.4253 49.301 51.9769 49.9604C58.0004 50.8332 64.0152 50.6674 70.0196 49.6571C73.9033 49.0047 76.6762 47.9856 80.9366 45.3901C80.9366 45.8045 80.9366 46.136 80.9366 46.4675C80.9366 57.0997 80.9191 67.7319 80.9575 78.3641C80.9627 79.8892 80.3402 80.9366 79.177 81.7671C76.9011 83.391 74.3044 84.2338 71.6257 84.8016C62.7212 86.6882 53.8621 86.6424 45.1268 83.8671C43.6008 83.3822 42.1569 82.5517 40.7687 81.723C39.588 81.0177 39.0282 79.9069 39.0352 78.4081C39.0788 67.746 39.0579 57.0856 39.0579 46.4234V45.3267H39.0561ZM66.6329 60.5115C67.3897 59.1591 68.7082 58.4644 70.105 57.8367C70.4399 57.6868 70.6561 57.2689 70.9264 56.9745C70.5986 56.7417 70.2899 56.3485 69.9376 56.3009C66.673 55.8619 63.4938 56.0523 60.6163 57.9143C60.1612 58.2087 59.7932 58.1999 59.3467 57.909C57.9847 57.0203 56.4954 56.3926 54.8823 56.2798C53.2971 56.1687 51.6961 56.2181 50.1074 56.2992C49.7447 56.3168 49.4011 56.7505 49.0489 56.9939C49.3244 57.2848 49.5581 57.6445 49.8859 57.8526C50.5713 58.2881 51.3561 58.5737 52.0048 59.0498C52.5611 59.4588 52.9884 60.0495 53.4872 60.5767C52.2978 61.2891 51.2166 61.8145 50.2679 62.5216C43.7525 67.3757 44.1135 75.7298 51.0055 80.0356C55.2154 82.6645 59.7356 83.2023 64.4861 81.9857C67.5537 81.2011 70.2184 79.6953 72.1629 77.128C75.5077 72.7112 74.9741 67.1482 70.8235 63.4807C69.5731 62.3752 68.0908 61.5359 66.6294 60.515L66.6329 60.5115Z" fill="#FF924C"/>
<path d="M79.1095 39.4251C77.8835 40.0087 76.879 40.5959 75.8048 40.982C69.7464 43.1578 63.4682 43.6709 57.0942 43.3959C52.6907 43.2054 48.3763 42.5072 44.2205 40.9944C43.1218 40.5941 42.0894 40.0034 41.0273 39.5009C41.0273 39.381 41.0308 39.2611 41.0326 39.1412C42.2341 38.5823 43.4043 37.9405 44.6425 37.482C48.0763 36.2143 51.6601 35.6518 55.2874 35.3538C60.9988 34.8848 66.6753 35.1599 72.2419 36.581C74.2492 37.0941 76.157 38.0039 78.1033 38.7533C78.384 38.8626 78.6195 39.0919 79.1095 39.4233V39.4251Z" fill="#FF924C"/>
<path d="M39.0549 39.7407C43.8734 43.3183 49.3737 44.1876 54.9787 44.7024C60.1826 45.1802 65.362 44.9493 70.4979 43.9795C74.141 43.2918 77.6637 42.2498 80.6563 39.8835C80.6912 39.8553 80.7609 39.8712 80.815 39.8677C81.1742 42.6253 80.9423 43.5493 78.9438 44.9457C76.5302 46.6296 73.7625 47.4372 70.9426 47.9873C62.3259 49.6676 53.7492 49.6024 45.3016 46.9664C43.8803 46.5221 42.5358 45.7797 41.2139 45.0639C39.6513 44.2175 38.809 42.8986 39.0479 41.0191C39.095 40.6435 39.0549 40.2573 39.0549 39.7407Z" fill="#FF924C"/>
<path d="M80.1811 38.1662C72.3073 33.7247 63.8039 33.3597 55.1679 33.8693C51.2964 34.0967 47.4912 34.7897 43.8533 36.195C42.4565 36.7345 41.1415 37.4892 39.7673 38.1574C38.8326 37.0589 38.7122 35.9234 39.7324 34.8549C40.5015 34.0491 41.4502 33.3491 42.439 32.8378C45.7438 31.131 49.3345 30.3693 52.9846 29.9514C60.3003 29.1121 67.5638 29.3202 74.6267 31.6459C76.3113 32.2013 77.9332 33.0882 79.4295 34.0632C80.9868 35.0788 81.2815 36.597 80.4758 37.8436C80.3851 37.9846 80.2474 38.0957 80.1811 38.1645V38.1662Z" fill="#FF924C"/>
<path d="M39.1658 82.3595C42.256 84.8527 45.8694 85.93 49.6067 86.6018C57.477 88.0159 65.3282 87.9189 73.1166 85.9794C75.872 85.2935 78.4687 84.2303 80.7341 82.4388C81.4177 84.0539 80.9346 85.9547 79.3372 86.9774C77.9037 87.896 76.3742 88.7864 74.7646 89.2748C64.9097 92.2547 55.0146 92.237 45.1527 89.2678C43.8604 88.8781 42.6397 88.2063 41.4346 87.5716C39.3628 86.4801 38.6461 84.7152 39.1675 82.3595H39.1658Z" fill="#FF924C"/>
<path d="M52.3149 63.0329C52.0637 64.313 51.7742 65.5402 51.6068 66.7832C51.5493 67.2134 51.7934 67.686 51.8981 68.1374C52.3131 68.0051 52.7944 67.9663 53.131 67.723C54.6343 66.6404 56.1864 65.6777 58.021 65.3004C60.7903 64.7326 63.3225 65.3515 65.6542 66.9119C66.1634 67.2522 66.6308 67.6595 67.1627 67.9558C67.4312 68.1056 67.8846 68.2167 68.0939 68.0845C68.3119 67.9469 68.4636 67.4762 68.4218 67.1852C68.216 65.7817 67.9335 64.3905 67.6649 62.913C70.1762 64.4575 72.1102 66.4535 72.7188 69.4739C73.4391 73.0426 71.948 75.8003 69.3234 77.9849C64.1509 82.289 55.2795 82.1549 50.2675 77.6623C45.0078 72.9492 46.5494 66.2772 52.1875 63.0258C52.2277 63.0029 52.2957 63.0293 52.3149 63.0311V63.0329Z" fill="#FF924C"/>
<path d="M67.1485 57.5721C66.4161 58.5225 65.7307 59.4112 65.0488 60.3016C64.6303 60.8482 64.6756 61.3437 65.1255 61.8814C66.0428 62.9782 66.5434 64.2724 66.8049 65.8663C62.2829 62.8935 57.8342 62.8442 53.2041 65.8452C53.3558 64.5033 53.7848 63.4877 54.376 62.5338C55.4223 60.8447 55.4433 60.8376 54.2086 59.2296C53.79 58.6847 53.2808 58.2104 52.707 57.588C54.7457 57.4981 56.6187 57.826 58.176 58.9175C59.5031 59.8467 60.4658 59.8626 61.7981 58.921C63.3555 57.819 65.2406 57.514 67.1502 57.5704L67.1485 57.5721Z" fill="#FF924C"/>
</g>
</g>
<defs>
<clipPath id="clip0_1716_61875">
<rect width="62" height="62" fill="white" transform="translate(29 29.5)"/>
</clipPath>
<clipPath id="clip1_1716_61875">
<rect width="42.0339" height="62" fill="white" transform="translate(39 29.5)"/>
</clipPath>
</defs>
</svg>
