<svg width="121" height="121" viewBox="0 0 121 121" fill="none" xmlns="http://www.w3.org/2000/svg">
<rect width="121" height="121" rx="60.5" fill="white"/>
<g clip-path="url(#clip0_1716_61888)">
<g clip-path="url(#clip1_1716_61888)">
<path d="M79.7326 65.8035C79.7587 66.1491 79.7809 66.3135 79.7809 66.4779C79.7822 73.6623 79.7861 80.8466 79.7783 88.0309C79.7757 89.7383 78.7838 91.0315 77.2098 91.425C76.9619 91.4871 76.6956 91.4988 76.4372 91.4988C62.0601 91.5027 47.6817 91.5027 33.3045 91.5001C31.5596 91.5001 30.1527 90.1926 30.0209 88.4619C30.0026 88.2251 30 87.9882 30 87.7513C30 69.5627 30 51.3753 30 33.188C30 31.4249 30.6708 30.3078 32.1182 29.7525C32.5332 29.5933 33.0044 29.5104 33.4507 29.5104C43.1307 29.4975 52.8095 29.5001 62.4895 29.5014C62.637 29.5014 62.7857 29.5234 63.0167 29.5415C63.0167 29.8133 63.0167 30.0658 63.0167 30.3195C63.0167 33.922 63.0128 37.5258 63.0181 41.1283C63.0233 44.2583 64.947 46.1547 68.1184 46.1573C71.7297 46.1612 75.3396 46.1573 78.9509 46.1573H79.7444C79.76 46.4343 79.7809 46.6233 79.7809 46.8123C79.7835 49.1424 79.794 51.4724 79.7679 53.8025C79.7653 54.0886 79.6374 54.4549 79.4351 54.6439C73.489 60.1816 67.5259 65.7013 61.5655 71.2235C61.5028 71.2804 61.4284 71.3244 61.311 71.4099C60.6323 70.8843 59.9471 70.3626 59.2724 69.8306C56.7705 67.8553 54.2829 65.8631 51.7693 63.9045C49.2987 61.9796 45.7645 63.1291 45.0218 66.1245C44.6094 67.7854 45.0401 69.3077 46.4353 70.3588C51.597 74.2435 56.7966 78.0777 61.9844 81.9287C62.051 81.9779 62.1332 82.0077 62.2533 82.0698C68.0388 76.6861 73.8244 71.3037 79.7352 65.8048L79.7326 65.8035Z" fill="#FF924C"/>
<path d="M61.6849 80.774C61.1955 80.3857 60.7243 80.0103 60.2532 79.6375C55.9528 76.2356 51.6434 72.8454 47.3548 69.428C45.5354 67.9782 45.9491 65.2482 48.1 64.4482C49.191 64.0417 50.196 64.3304 51.0887 65.0359C53.4862 66.931 55.8824 68.8274 58.2785 70.7251C58.9755 71.2765 59.6972 71.8021 60.355 72.3962C60.7922 72.791 61.0858 72.7354 61.4957 72.3639C66.2632 68.0429 71.0452 63.7401 75.8167 59.423C77.2784 58.1001 78.701 56.7344 80.1744 55.4231C81.8045 53.972 83.4568 52.5429 85.1312 51.1436C86.0474 50.3786 87.0928 50.2828 88.1735 50.8329C89.6939 51.607 90.2225 53.5953 89.2619 54.9959C89.044 55.3131 88.7699 55.6005 88.4854 55.8645C79.732 64.0132 70.976 72.158 62.2187 80.3029C62.0621 80.4491 61.8976 80.5863 61.6862 80.7728L61.6849 80.774Z" fill="#FF924C"/>
<path d="M64.3477 30.6793C69.1048 35.3938 73.8306 40.0772 78.576 44.78C78.4024 44.7904 78.1975 44.8124 77.9939 44.8124C74.6881 44.8149 71.3822 44.8175 68.0764 44.8124C65.6567 44.8085 64.349 43.4959 64.349 41.083C64.3477 37.8261 64.349 34.5679 64.349 31.311V30.6793H64.3477Z" fill="#FF924C"/>
</g>
</g>
<defs>
<clipPath id="clip0_1716_61888">
<rect width="62" height="62" fill="white" transform="translate(29 29.5)"/>
</clipPath>
<clipPath id="clip1_1716_61888">
<rect width="59.7455" height="62" fill="white" transform="translate(30 29.5)"/>
</clipPath>
</defs>
</svg>
