<svg width="121" height="121" viewBox="0 0 121 121" fill="none" xmlns="http://www.w3.org/2000/svg">
<rect width="121" height="121" rx="60.5" fill="white"/>
<g clip-path="url(#clip0_1716_51497)">
<g clip-path="url(#clip1_1716_51497)">
<path d="M42.7772 52.2423C43.7866 53.1635 44.649 53.988 45.5526 54.7642C46.1256 55.2577 46.7545 55.6839 47.3613 56.1364C47.7183 56.403 47.9696 56.7061 47.7933 57.1909C46.8647 59.7567 46.3622 62.4016 46.3269 65.1329C46.3255 65.272 46.2608 65.4082 46.2094 65.6104C45.9332 65.6104 45.6672 65.6104 45.4028 65.6104C44.0731 65.6147 44.0452 65.6104 43.7498 66.9269C43.5103 67.9946 43.3208 69.0754 43.1577 70.1591C43.0563 70.8372 43.3869 71.3 44.0745 71.4332C44.5873 71.5328 44.8077 71.814 44.8577 72.3237C44.9458 73.2199 45.0766 74.1133 45.2 75.0052C45.2573 75.4226 45.4175 75.7448 45.9273 75.7623C46.421 75.7799 46.8133 75.6452 46.9646 75.1458C47.1762 74.4472 47.3716 73.7442 47.5406 73.0339C47.6757 72.4657 47.902 72.1084 48.5896 72.2065C49.0789 72.2768 49.4197 72.041 49.5182 71.4991C49.7694 70.1093 50.0545 68.7239 50.3116 67.3355C50.4203 66.7468 50.053 66.451 49.5505 66.3675C48.7512 66.2342 48.4735 65.8022 48.6131 65.0363C48.9951 62.9567 49.3301 60.8668 49.7665 58.7989C49.9678 57.8455 50.0985 57.8177 50.9669 58.2102C53.9451 59.5546 57.0717 60.0862 60.3261 60.0394C63.1868 59.9984 65.8961 59.3466 68.5173 58.2453C69.5193 57.825 69.5752 57.8499 69.9043 58.8883C70.6433 61.2271 71.0077 63.623 70.9504 66.0395C70.8564 66.1127 70.824 66.1566 70.7829 66.1669C69.202 66.574 69.1785 66.5769 69.4488 68.182C69.631 69.2614 69.8705 70.3334 70.1173 71.401C70.2466 71.9605 70.4876 72.4057 71.2296 72.2446C71.7291 72.1362 71.9039 72.5404 72.0259 72.9285C72.2507 73.6476 72.4535 74.374 72.6827 75.093C72.8487 75.6144 73.2557 75.878 73.7567 75.7243C74.0314 75.6393 74.365 75.3054 74.4208 75.033C74.5986 74.1514 74.6691 73.2478 74.7631 72.3515C74.8175 71.8404 74.985 71.4918 75.5786 71.4288C76.1487 71.3688 76.4734 70.9734 76.3999 70.411C76.2221 69.0607 76.0179 67.7119 75.7593 66.3748C75.6432 65.7758 75.1687 65.5064 74.5457 65.5503C74.2078 65.5752 73.8698 65.5986 73.4702 65.6279C73.3086 64.3128 73.2219 63.027 72.9765 61.7719C72.6827 60.2708 72.2713 58.7916 71.8731 57.3139C71.7702 56.9331 71.688 56.6432 72.0435 56.3415C73.6068 55.019 75.1525 53.6775 76.7628 52.2936C76.8804 52.5396 77.0405 52.8252 77.1581 53.1283C78.9388 57.7196 80.2773 62.4382 80.7049 67.3443C80.9223 69.834 80.8283 72.3749 80.6123 74.8704C80.3258 78.1934 79.7807 81.4944 79.3517 84.8057C79.2518 85.5731 78.8418 86.0637 78.1454 86.4196C72.0288 89.5478 65.6302 91.6493 58.6732 91.497C54.9442 91.415 51.3562 90.4352 47.8741 89.1699C45.6951 88.3776 43.6059 87.3451 41.4754 86.421C40.7569 86.1091 40.4322 85.5438 40.2809 84.791C39.4772 80.7871 39.1349 76.7362 38.8395 72.6693C38.3532 65.9589 39.9988 59.6571 42.2394 53.4432C42.3687 53.0829 42.5524 52.7432 42.7787 52.2467L42.7772 52.2423ZM71.0679 80.727C71.0312 78.3955 70.3553 76.2705 69.1696 74.2759C68.5423 73.2199 67.7165 72.741 66.4486 72.8758C64.7721 73.0544 63.081 73.2053 61.3972 73.1892C58.5865 73.1628 55.7729 73.0354 52.9666 72.8641C51.7382 72.7894 51.0007 73.3034 50.4144 74.2978C48.8952 76.8739 48.4471 79.6667 48.6175 82.5987C48.7042 84.0837 49.5152 85.0253 50.8523 85.5701C51.2137 85.7181 51.581 85.8748 51.9616 85.948C53.9275 86.3317 55.8845 86.8311 57.871 87.0288C61.7792 87.4198 65.5788 86.7959 69.2313 85.3431C70.2892 84.9228 70.8373 84.1086 70.9239 82.9868C70.9813 82.234 71.0209 81.4798 71.0679 80.7255V80.727Z" fill="#FF924C"/>
<path d="M69.4609 51.2069C69.4609 52.7168 69.4814 54.2282 69.4403 55.7366C69.4329 55.9812 69.2096 56.3298 68.9892 56.4396C63.0549 59.4082 57.0602 59.4008 51.023 56.7515C50.5147 56.5289 50.2179 56.2185 50.1855 55.6034C49.8623 49.5081 50.3281 43.4684 51.5505 37.4976C52.2778 33.9447 54.2143 31.2954 57.7053 29.8617C60.3543 28.7736 63.3619 30.3567 64.8782 31.7729C67.2408 33.9784 68.1547 36.8035 68.5293 39.857C68.9907 43.6281 69.3521 47.4109 69.7577 51.1893C69.6592 51.1952 69.5608 51.2011 69.4609 51.2069ZM55.3588 33.4673H64.0172C61.5474 30.6481 58.2988 30.3713 55.3588 33.4673Z" fill="#FF924C"/>
<path d="M76.9444 50.8247C77.4543 47.5837 77.4983 44.4511 76.9386 41.3317C76.7637 40.3549 76.4919 39.3869 76.176 38.4452C75.9835 37.8696 76.1422 37.6514 76.6903 37.6514C78.4754 37.6485 80.2591 37.6544 82.0443 37.6851C82.2191 37.688 82.4674 37.8506 82.5512 38.0073C84.639 41.8868 85.1958 45.86 83.277 49.9885C82.9861 50.6138 82.5938 50.8716 81.8694 50.8452C80.262 50.7851 78.6503 50.8262 76.9459 50.8262L76.9444 50.8247Z" fill="#FF924C"/>
<path d="M50.6103 34.9567C48.8413 41.5426 48.1125 48.2398 48.4548 55.0527C48.3682 55.0835 48.2815 55.1157 48.1963 55.1465C47.5145 54.6251 46.8269 54.1111 46.1525 53.5809C45.9233 53.4008 45.7411 53.1591 45.5075 52.9849C44.2219 52.0271 43.5872 50.8027 43.4858 49.1581C43.2786 45.8029 43.3286 42.496 44.3042 39.2419C44.7303 37.8184 45.5163 36.7683 46.9165 36.203C48.067 35.7373 49.2115 35.2584 50.359 34.7854C50.4428 34.8425 50.5265 34.8982 50.6103 34.9553V34.9567Z" fill="#FF924C"/>
<path d="M71.2068 54.9927C71.5315 48.1754 70.838 41.4694 69.0234 34.7825C69.3643 34.8308 69.5582 34.8205 69.7213 34.8865C70.8747 35.3551 72.0266 35.8281 73.1682 36.3246C74.2467 36.7932 74.8594 37.6471 75.2282 38.7498C76.1068 41.3772 76.3683 44.0792 76.2728 46.8222C76.2302 48.0363 76.1038 49.2548 75.907 50.4527C75.8276 50.936 75.5529 51.472 75.2002 51.8118C74.0116 52.9526 72.7466 54.0173 71.5109 55.1099C71.4095 55.0703 71.3081 55.0322 71.2082 54.9927H71.2068Z" fill="#FF924C"/>
<path d="M42.4671 50.8232C40.6217 50.8232 38.8879 50.8378 37.1557 50.8042C36.9544 50.7998 36.6958 50.5654 36.568 50.3707C35.2971 48.4375 35.1163 46.2656 35.2398 44.0396C35.3573 41.9336 35.9524 39.9595 37.0029 38.1332C37.141 37.8916 37.4966 37.6353 37.7581 37.628C39.3229 37.5811 40.8906 37.5914 42.4568 37.6119C43.3384 37.6236 43.4559 37.8052 43.1914 38.6268C42.0454 42.1782 41.9631 45.8116 42.3422 49.4817C42.3848 49.8918 42.4186 50.3018 42.4686 50.8232H42.4671Z" fill="#FF924C"/>
<path d="M32.0015 76.414C32.1719 74.8397 32.2101 73.5128 32.476 72.2329C32.9065 70.1635 34.223 68.8498 36.305 68.3343C37.1013 68.1366 37.1865 68.182 37.2159 69.0227C37.2717 70.6805 37.2056 72.35 37.3702 73.9976C37.7301 77.5886 38.2032 81.1678 38.6293 84.7529C38.7381 85.6624 38.7234 85.6771 37.7757 85.6961C34.9944 85.7488 33.8513 85.0371 33.1225 82.357C32.576 80.3462 32.3365 78.252 32 76.414H32.0015Z" fill="#FF924C"/>
<path d="M82.5338 68.2435C84.5423 68.2494 86.5684 69.8882 87.0929 72.0439C87.3559 73.1233 87.4235 74.2627 87.4617 75.3786C87.544 77.7365 87.2237 80.0563 86.5243 82.3145C85.7339 84.8701 84.4306 85.7927 81.758 85.74C80.8735 85.7225 80.8265 85.6375 80.947 84.7427C81.3643 81.6731 81.8271 78.6093 82.143 75.5295C82.3648 73.3722 82.3736 71.1931 82.4794 69.0227C82.4927 68.7605 82.5147 68.4998 82.5323 68.2435H82.5338Z" fill="#FF924C"/>
<path d="M74.3268 67.1335C74.484 68.0869 74.628 68.9613 74.791 69.9557C73.8096 70.1226 72.906 70.3071 71.9921 70.4038C71.8143 70.4228 71.4911 70.1285 71.4249 69.919C71.2589 69.3889 71.1517 68.8265 71.1252 68.2729C71.1164 68.0767 71.375 67.7355 71.5689 67.6857C72.4387 67.4645 73.3291 67.3239 74.3268 67.1335Z" fill="#FF924C"/>
<path d="M48.0459 70.5414C47.1056 70.3627 46.296 70.1943 45.4806 70.0581C44.984 69.9746 44.8238 69.6993 44.9149 69.2379C45.4012 66.7922 44.8782 67.1203 47.1967 67.5084C47.6463 67.583 48.0871 67.7148 48.6028 67.8364C48.4147 68.7517 48.2399 69.5967 48.0459 70.5414Z" fill="#FF924C"/>
<path d="M50.868 77.1244C56.8244 80.7813 62.775 80.6744 68.8048 77.1097C68.9738 77.7922 69.1501 78.2682 69.1986 78.7573C69.3132 79.8938 69.4087 81.0361 69.4293 82.1769C69.4454 83.1259 69.0884 83.9226 68.0467 84.1496C66.0235 84.5934 64.0106 85.1631 61.961 85.3871C58.7271 85.7416 55.5168 85.4282 52.3946 84.4103C50.3905 83.7571 50.2142 83.6429 50.1172 81.5736C50.0482 80.1149 50.2818 78.6738 50.8665 77.1215L50.868 77.1244Z" fill="#FF924C"/>
</g>
</g>
<defs>
<clipPath id="clip0_1716_51497">
<rect width="62" height="62" fill="white" transform="translate(29 29.5)"/>
</clipPath>
<clipPath id="clip1_1716_51497">
<rect width="55.4737" height="62" fill="white" transform="translate(32 29.5)"/>
</clipPath>
</defs>
</svg>
