<svg width="22" height="28" viewBox="0 0 22 28" fill="none" xmlns="http://www.w3.org/2000/svg">
<path fill-rule="evenodd" clip-rule="evenodd" d="M10.5415 22.167H7.1782C5.85983 22.167 4.69596 21.3063 4.30978 20.0457L3.93988 18.8383C3.75601 18.2381 3.37863 17.7211 2.93134 17.2808C1.0966 15.4745 -1.15086 11.7156 0.67993 7.10906C3.18746 0.799796 8.97096 -0.0929308 10.7278 0.00706768C12.4846 -0.0929308 18.2681 0.799796 20.7756 7.10906C22.6064 11.7156 20.3589 15.4745 18.5242 17.2808C18.0769 17.7211 17.6995 18.2381 17.5156 18.8383L17.1457 20.0457C16.7596 21.3063 15.5957 22.167 14.2773 22.167H10.914H10.5415Z" fill="#FFE287"/>
<rect x="3.62891" y="21.6499" width="14.5137" height="2.72133" rx="1.36066" fill="#FFB180"/>
<rect x="3.62891" y="24.3716" width="14.5137" height="3.62844" rx="1.81422" fill="#FFB180"/>
</svg>
