<svg width="25" height="24" viewBox="0 0 25 24" fill="none" xmlns="http://www.w3.org/2000/svg">
<g id="vuesax/bold/location">
<path id="Vector" d="M21.1172 8.45C20.0672 3.83 16.0372 1.75 12.4972 1.75C12.4972 1.75 12.4972 1.75 12.4872 1.75C8.95717 1.75 4.91717 3.82 3.86717 8.44C2.69717 13.6 5.85717 17.97 8.71717 20.72C9.77717 21.74 11.1372 22.25 12.4972 22.25C13.8572 22.25 15.2172 21.74 16.2672 20.72C19.1272 17.97 22.2872 13.61 21.1172 8.45ZM12.4972 13.46C10.7572 13.46 9.34717 12.05 9.34717 10.31C9.34717 8.57 10.7572 7.16 12.4972 7.16C14.2372 7.16 15.6472 8.57 15.6472 10.31C15.6472 12.05 14.2372 13.46 12.4972 13.46Z" fill="#8C8C8C"/>
</g>
</svg>
