<svg width="24" height="24" viewBox="0 0 24 24" fill="none" xmlns="http://www.w3.org/2000/svg">
<g id="category-2">
<g id="vuesax/bulk/category-2">
<g id="category-2_2">
<path id="Vector" opacity="0.4" d="M18.6675 2H16.7675C14.5875 2 13.4375 3.15 13.4375 5.33V7.23C13.4375 9.41 14.5875 10.56 16.7675 10.56H18.6675C20.8475 10.56 21.9975 9.41 21.9975 7.23V5.33C21.9975 3.15 20.8475 2 18.6675 2Z" fill="#737373"/>
<path id="Vector_2" opacity="0.4" d="M7.24 13.4302H5.34C3.15 13.4302 2 14.5802 2 16.7602V18.6602C2 20.8502 3.15 22.0002 5.33 22.0002H7.23C9.41 22.0002 10.56 20.8502 10.56 18.6702V16.7702C10.57 14.5802 9.42 13.4302 7.24 13.4302Z" fill="#737373"/>
<path id="Vector_3" d="M6.29 10.58C8.6593 10.58 10.58 8.6593 10.58 6.29C10.58 3.9207 8.6593 2 6.29 2C3.9207 2 2 3.9207 2 6.29C2 8.6593 3.9207 10.58 6.29 10.58Z" fill="#8C8C8C"/>
<path id="Vector_4" d="M17.7119 21.9999C20.0812 21.9999 22.0019 20.0792 22.0019 17.7099C22.0019 15.3406 20.0812 13.4199 17.7119 13.4199C15.3426 13.4199 13.4219 15.3406 13.4219 17.7099C13.4219 20.0792 15.3426 21.9999 17.7119 21.9999Z" fill="#404040"/>
</g>
</g>
</g>
</svg>
