<svg width="28" height="28" viewBox="0 0 28 28" fill="none" xmlns="http://www.w3.org/2000/svg">
<g id="&#236;&#186;&#160;&#237;&#149;&#145; &#236;&#131;&#129;&#236;&#132;&#184;&#237;&#142;&#152;&#236;&#157;&#180;&#236;&#167;&#128; &#236;&#149;&#132;&#236;&#157;&#180;&#236;&#189;&#152;">
<path id="Vector" d="M6.41818 4.99609C5.75538 5.06011 5.18226 5.12748 4.6966 5.19222C3.41378 5.36321 2.43466 6.32849 2.25107 7.6096C2.01333 9.26854 1.75 11.9078 1.75 15.4599C1.75 19.012 2.01333 21.6512 2.25107 23.3101C2.43466 24.5912 3.41378 25.5565 4.69659 25.7275C6.52266 25.9709 9.58527 26.2515 14 26.2515C18.4147 26.2515 21.4773 25.9709 23.3034 25.7275C24.5862 25.5565 25.5653 24.5912 25.7489 23.3101C25.9867 21.6512 26.25 19.012 26.25 15.4599C26.25 11.9078 25.9867 9.26854 25.7489 7.6096C25.5653 6.32849 24.5862 5.36321 23.3034 5.19222C22.8177 5.12748 22.2446 5.06011 21.5818 4.99609" fill="#ECECEC"/>
<path id="Vector_2" d="M9.33301 15.7794L13.2817 19.832L18.6663 12.832" stroke="#ED8383" stroke-width="3" stroke-linecap="round" stroke-linejoin="round"/>
<path id="Vector_3" d="M16.9246 5.40746C16.9499 6.62078 17.7463 7.56251 18.9598 7.58118C19.0525 7.58258 19.1492 7.58333 19.2503 7.58333C19.3514 7.58333 19.4482 7.58258 19.5409 7.58118C20.7543 7.56251 21.5508 6.62078 21.576 5.40746C21.5808 5.17689 21.5837 4.92932 21.5837 4.66667C21.5837 4.40402 21.5808 4.15644 21.576 3.92587C21.5508 2.71255 20.7543 1.77085 19.5409 1.75218C19.4482 1.75076 19.3514 1.75 19.2503 1.75C19.1492 1.75 19.0525 1.75076 18.9598 1.75218C17.7463 1.77085 16.9499 2.71255 16.9246 3.92587C16.9199 4.15644 16.917 4.40402 16.917 4.66667C16.917 4.92932 16.9199 5.17689 16.9246 5.40746Z" fill="#C1C1C1"/>
<path id="Vector_4" d="M6.42463 5.40746C6.44989 6.62078 7.24632 7.56251 8.45977 7.58118C8.55246 7.58258 8.64923 7.58333 8.75033 7.58333C8.85142 7.58333 8.94819 7.58258 9.04088 7.58118C10.2543 7.56251 11.0508 6.62078 11.076 5.40746C11.0808 5.17689 11.0837 4.92932 11.0837 4.66667C11.0837 4.40402 11.0808 4.15644 11.076 3.92587C11.0508 2.71255 10.2543 1.77085 9.04088 1.75218C8.94819 1.75076 8.85142 1.75 8.75033 1.75C8.64923 1.75 8.55246 1.75076 8.45977 1.75218C7.24632 1.77085 6.44989 2.71255 6.42463 3.92587C6.41985 4.15644 6.41699 4.40402 6.41699 4.66667C6.41699 4.92932 6.41985 5.17689 6.42463 5.40746Z" fill="#C1C1C1"/>
</g>
</svg>
