<svg width="28" height="29" viewBox="0 0 28 29" fill="none" xmlns="http://www.w3.org/2000/svg">
<g id="&#236;&#186;&#160;&#237;&#149;&#145; &#236;&#131;&#129;&#236;&#132;&#184;&#237;&#142;&#152;&#236;&#157;&#180;&#236;&#167;&#128; &#236;&#149;&#132;&#236;&#157;&#180;&#236;&#189;&#152;">
<path id="Vector" d="M25.0833 13.9167C25.0833 7.47333 19.86 2.25 13.4167 2.25C6.97333 2.25 1.75 7.47333 1.75 13.9167C1.75 16.0287 2.3112 18.0096 3.29262 19.7184C2.78766 21.0387 2.31076 22.5724 1.99765 24.1051C1.84832 24.8361 2.49239 25.4546 3.21836 25.2827C4.68646 24.935 6.17678 24.4531 7.48578 23.9654C9.22361 24.9934 11.2513 25.5833 13.4167 25.5833C19.86 25.5833 25.0833 20.36 25.0833 13.9167Z" fill="#BAF1EA"/>
<path id="Vector_2" d="M12.25 19.75C12.25 15.884 15.384 12.75 19.25 12.75C23.116 12.75 26.25 15.884 26.25 19.75C26.25 21.0932 25.8717 22.348 25.2159 23.4137C25.4675 23.9453 25.7178 24.5574 25.9155 25.2134C26.1414 25.9635 25.4696 26.6084 24.725 26.3649C24.0979 26.1598 23.5045 25.9142 22.9787 25.6754C21.8991 26.3561 20.6205 26.75 19.25 26.75C15.384 26.75 12.25 23.616 12.25 19.75Z" fill="#BEC7E3"/>
</g>
</svg>
