<svg width="28" height="28" viewBox="0 0 28 28" fill="none" xmlns="http://www.w3.org/2000/svg">
<g id="&#236;&#186;&#160;&#237;&#149;&#145; &#236;&#131;&#129;&#236;&#132;&#184;&#237;&#142;&#152;&#236;&#157;&#180;&#236;&#167;&#128; &#236;&#149;&#132;&#236;&#157;&#180;&#236;&#189;&#152;">
<path id="Vector" d="M7.88407 19.4736C5.56985 17.6582 4.08301 14.8361 4.08301 11.6667C4.08301 6.18987 8.52287 1.75 13.9997 1.75C19.4765 1.75 23.9163 6.18987 23.9163 11.6667C23.9163 14.8361 22.4295 17.6582 20.1153 19.4736C19.9277 20.2316 19.7158 20.9589 19.5486 21.5031C19.3698 22.0854 18.8861 22.5087 18.2804 22.5719C17.4674 22.6568 16.0971 22.75 13.9997 22.75C11.9022 22.75 10.5319 22.6568 9.719 22.5719C9.11321 22.5087 8.62957 22.0854 8.45072 21.5031C8.28353 20.9589 8.07167 20.2316 7.88407 19.4736Z" fill="#FFD755"/>
<path id="Vector_2" d="M9.61816 22.5574C9.73635 23.3215 9.85955 24.017 9.96268 24.5663C10.1078 25.3391 10.6574 25.9598 11.4348 26.0774C12.0451 26.1697 12.8928 26.2495 13.9999 26.2495C15.0528 26.2495 15.918 26.1774 16.5767 26.0909C17.5009 25.9696 18.1482 25.2009 18.2486 24.2742L18.4358 22.5469" fill="#5B749F"/>
<path id="Vector_3" d="M19.8333 11.0833C19.8333 7.8617 17.2216 5.25 14 5.25" stroke="white" stroke-width="3" stroke-linecap="round" stroke-linejoin="round"/>
</g>
</svg>
