<svg width="28" height="28" viewBox="0 0 28 28" fill="none" xmlns="http://www.w3.org/2000/svg">
<g id="&#236;&#186;&#160;&#237;&#149;&#145; &#236;&#131;&#129;&#236;&#132;&#184;&#237;&#142;&#152;&#236;&#157;&#180;&#236;&#167;&#128; &#236;&#149;&#132;&#236;&#157;&#180;&#236;&#189;&#152;">
<path id="Vector" d="M5.23346 18.6533C7.61331 18.7958 9.56952 19.2104 11.4163 19.6018C15.3719 20.4401 18.8254 21.172 24.8642 18.8962C25.3426 18.716 25.7048 18.3207 25.7959 17.8177C25.9828 16.7856 26.2503 14.6277 26.2503 10.7294C26.2503 7.84099 26.1035 5.90805 25.9513 4.68055C25.8274 3.68069 24.8303 3.18393 23.872 3.49515C18.6527 5.19033 15.415 4.2421 11.8601 3.20099C9.59775 2.53842 7.20702 1.83825 4.0953 1.75781H3.5" fill="#D0E57E"/>
<path id="Vector_2" d="M2.84218 1.7845C2.22767 1.85498 1.90409 2.40042 1.88178 3.01855C1.82996 4.45404 1.75 7.69113 1.75 14C1.75 20.3089 1.82996 23.546 1.88178 24.9814C1.90409 25.5996 2.22767 26.145 2.84218 26.2155C3.02647 26.2366 3.24416 26.25 3.5 26.25C3.75584 26.25 3.97353 26.2366 4.15782 26.2155C4.77233 26.145 5.09591 25.5996 5.11822 24.9814C5.17004 23.546 5.25 20.3089 5.25 14C5.25 7.69113 5.17004 4.45404 5.11822 3.01855C5.09591 2.40041 4.77233 1.85498 4.15782 1.7845C3.97353 1.76336 3.75584 1.75 3.5 1.75C3.24416 1.75 3.02648 1.76336 2.84218 1.7845Z" fill="#C19B7E"/>
</g>
</svg>
