<svg width="28" height="28" viewBox="0 0 28 28" fill="none" xmlns="http://www.w3.org/2000/svg">
<g id="&#236;&#186;&#160;&#237;&#149;&#145; &#236;&#131;&#129;&#236;&#132;&#184;&#237;&#142;&#152;&#236;&#157;&#180;&#236;&#167;&#128; &#236;&#149;&#132;&#236;&#157;&#180;&#236;&#189;&#152;">
<path id="Vector" d="M24.5 12.25C24.5 19.7858 16.712 25.1582 14.5505 26.5042C14.2083 26.7172 13.7917 26.7172 13.4495 26.5042C11.288 25.1582 3.5 19.7858 3.5 12.25C3.5 6.45102 8.20102 1.75 14 1.75C19.799 1.75 24.5 6.45102 24.5 12.25Z" fill="#F27373"/>
<path id="Vector_2" d="M19.2165 13.8972C19.7885 12.9718 19.9745 11.8252 19.7257 10.7592C19.1942 8.33096 16.2509 7.33865 14.4175 8.96598C14.2723 9.09396 14.1432 9.2416 14.0003 9.38872C13.8575 9.2416 13.7283 9.09396 13.5831 8.96598C11.7498 7.33865 8.80645 8.33096 8.27492 10.7592C8.02613 11.8252 8.21221 12.9718 8.78417 13.8972C9.71295 15.4022 11.1695 16.5982 12.6325 17.6772C13.4436 18.2755 14.5571 18.2755 15.3682 17.6772C16.8312 16.5982 18.2877 15.4022 19.2165 13.8972Z" fill="#FF9696"/>
</g>
</svg>
