<svg width="28" height="29" viewBox="0 0 28 29" fill="none" xmlns="http://www.w3.org/2000/svg">
<g id="&#236;&#186;&#160;&#237;&#149;&#145; &#236;&#131;&#129;&#236;&#132;&#184;&#237;&#142;&#152;&#236;&#157;&#180;&#236;&#167;&#128; &#236;&#149;&#132;&#236;&#157;&#180;&#236;&#189;&#152;">
<path id="Vector" d="M4.81117 22.6559C3.32397 22.5522 2.16382 21.4415 2.03329 19.9565C1.8903 18.3297 1.75 15.8588 1.75 12.4258C1.75 8.99281 1.8903 6.52186 2.03329 4.89509C2.16382 3.41 3.32397 2.29932 4.81117 2.19565C6.69398 2.06439 9.70013 1.92578 14 1.92578C18.2999 1.92578 21.306 2.06439 23.1888 2.19565C24.6761 2.29933 25.8362 3.41 25.9667 4.89509C26.1097 6.52186 26.25 8.99281 26.25 12.4258C26.25 15.8588 26.1097 18.3297 25.9667 19.9565C25.8362 21.4415 24.6761 22.5522 23.1888 22.6559C21.4368 22.7781 18.712 22.9066 14.8773 22.9239L10.6759 26.525C9.91912 27.1737 8.75 26.636 8.75 25.6392V22.8483C7.10827 22.7963 5.80365 22.7251 4.81117 22.6559Z" fill="#E8CCF2"/>
<path id="Vector_2" d="M11.7865 7.31397C11.7079 6.45904 12.1397 5.63764 12.9875 5.50262C13.2775 5.45646 13.615 5.42578 14.0004 5.42578C14.3857 5.42578 14.7233 5.45646 15.0132 5.50262C15.8611 5.63764 16.2928 6.45904 16.2143 7.31397C16.1038 8.51675 15.9281 10.234 15.737 11.347C15.6442 11.8874 15.2829 12.3224 14.7383 12.3864C14.5373 12.41 14.2933 12.4258 14.0004 12.4258C13.7074 12.4258 13.4635 12.41 13.2625 12.3864C12.7179 12.3224 12.3566 11.8874 12.2637 11.347C12.0726 10.234 11.8969 8.51675 11.7865 7.31397Z" fill="#FDEBFF"/>
<path id="Vector_3" d="M16.0413 16.7995C16.0413 17.9271 15.1273 18.8411 13.9997 18.8411C12.8721 18.8411 11.958 17.9271 11.958 16.7995C11.958 15.6719 12.8721 14.7578 13.9997 14.7578C15.1273 14.7578 16.0413 15.6719 16.0413 16.7995Z" fill="#FDEBFF"/>
</g>
</svg>
