<svg width="28" height="29" viewBox="0 0 28 29" fill="none" xmlns="http://www.w3.org/2000/svg">
<g id="vuesax/bulk/sun">
<g id="sun">
<path id="Vector" d="M13.9997 22.6654C18.51 22.6654 22.1663 19.009 22.1663 14.4987C22.1663 9.98837 18.51 6.33203 13.9997 6.33203C9.48935 6.33203 5.83301 9.98837 5.83301 14.4987C5.83301 19.009 9.48935 22.6654 13.9997 22.6654Z" fill="#EEC870"/>
<path id="Vector_2" d="M14.0003 27.288C13.3587 27.288 12.8337 26.8096 12.8337 26.168V26.0746C12.8337 25.433 13.3587 24.908 14.0003 24.908C14.642 24.908 15.167 25.433 15.167 26.0746C15.167 26.7163 14.642 27.288 14.0003 27.288ZM22.3303 23.998C22.027 23.998 21.7353 23.8813 21.502 23.6596L21.3503 23.508C20.8953 23.053 20.8953 22.318 21.3503 21.863C21.8053 21.408 22.5403 21.408 22.9953 21.863L23.147 22.0146C23.602 22.4696 23.602 23.2046 23.147 23.6596C22.9253 23.8813 22.6337 23.998 22.3303 23.998ZM5.67033 23.998C5.36699 23.998 5.07533 23.8813 4.84199 23.6596C4.38699 23.2046 4.38699 22.4696 4.84199 22.0146L4.99366 21.863C5.44866 21.408 6.18366 21.408 6.63866 21.863C7.09366 22.318 7.09366 23.053 6.63866 23.508L6.48699 23.6596C6.26533 23.8813 5.96199 23.998 5.67033 23.998ZM25.667 15.668H25.5737C24.932 15.668 24.407 15.143 24.407 14.5013C24.407 13.8596 24.932 13.3346 25.5737 13.3346C26.2153 13.3346 26.787 13.8596 26.787 14.5013C26.787 15.143 26.3087 15.668 25.667 15.668ZM2.42699 15.668H2.33366C1.69199 15.668 1.16699 15.143 1.16699 14.5013C1.16699 13.8596 1.69199 13.3346 2.33366 13.3346C2.97533 13.3346 3.54699 13.8596 3.54699 14.5013C3.54699 15.143 3.06866 15.668 2.42699 15.668ZM22.1787 7.48963C21.8753 7.48963 21.5837 7.37297 21.3503 7.1513C20.8953 6.6963 20.8953 5.9613 21.3503 5.5063L21.502 5.35464C21.957 4.89964 22.692 4.89964 23.147 5.35464C23.602 5.80964 23.602 6.54464 23.147 6.99964L22.9953 7.1513C22.7737 7.37297 22.482 7.48963 22.1787 7.48963ZM5.82199 7.48963C5.51866 7.48963 5.22699 7.37297 4.99366 7.1513L4.84199 6.98797C4.38699 6.53297 4.38699 5.79797 4.84199 5.34297C5.29699 4.88797 6.03199 4.88797 6.48699 5.34297L6.63866 5.49464C7.09366 5.94964 7.09366 6.68464 6.63866 7.13964C6.41699 7.37297 6.11366 7.48963 5.82199 7.48963ZM14.0003 4.04797C13.3587 4.04797 12.8337 3.56964 12.8337 2.92797V2.83464C12.8337 2.19297 13.3587 1.66797 14.0003 1.66797C14.642 1.66797 15.167 2.19297 15.167 2.83464C15.167 3.4763 14.642 4.04797 14.0003 4.04797Z" fill="#EEC870"/>
</g>
</g>
</svg>
